<?xml version="1.0" encoding="utf-8"?>
<svg version="1.1" id="Capa_1" xmlns="http://www.w3.org/2000/svg" xmlns:xlink="http://www.w3.org/1999/xlink" x="0px" y="0px" width="38px" height="39.584px" viewBox="0 0 38 39.584" enable-background="new 0 0 38 39.584" xml:space="preserve">
	<g transform="translate(-1554.000000, -357.000000)">
		<g id="Group-7" transform="translate(973.000000, 342.000000)">
			<g id="Group-12-Copy-2" transform="translate(23.000000, 15.000000)">
				<g id="compartir" transform="translate(558.000000, 0.000000)">
					<path id="Shape" fill="#FFFFFF" d="M30.873,25.438c-2.527,0-4.867,1.358-6.148,3.56l-11.003-6.045
						c0.355-0.859,0.535-1.756,0.535-2.673s-0.18-1.815-0.535-2.673l11.466-6.3c1.35,1.78,3.463,2.836,5.684,2.836
						c3.931,0,7.129-3.173,7.129-7.072C38,3.171,34.802,0,30.871,0s-7.129,3.173-7.129,7.071c0,0.951,0.201,1.892,0.6,2.797
						l-11.435,6.284c-1.343-1.846-3.492-2.944-5.779-2.944C3.198,13.209,0,16.382,0,20.281c0,3.9,3.198,7.071,7.127,7.071
						c2.288,0,4.437-1.099,5.779-2.945l11.154,6.129c-0.214,0.706-0.318,1.354-0.318,1.975c0,3.899,3.198,7.073,7.129,7.073
						S38,36.41,38,32.511S34.803,25.438,30.873,25.438L30.873,25.438z M30.873,37.92c-3.007,0-5.453-2.426-5.453-5.409
						c0-2.982,2.446-5.409,5.453-5.409c3.006,0,5.451,2.427,5.451,5.409C36.324,35.494,33.877,37.92,30.873,37.92L30.873,37.92z
						 M30.873,1.665c3.006,0,5.451,2.426,5.451,5.407c0,2.981-2.445,5.409-5.451,5.409c-3.007,0-5.453-2.426-5.453-5.409
						S27.866,1.665,30.873,1.665L30.873,1.665z M7.127,14.873c1.666,0,3.256,0.781,4.29,2.1l-0.147,0.082l0.118,0.153
						c0.305,0.396,0.558,0.748,0.775,1.081l0.044,0.047c0.248,0.631,0.373,1.286,0.373,1.947c0,2.982-2.446,5.408-5.452,5.408
						s-5.452-2.426-5.452-5.408S4.123,14.873,7.127,14.873L7.127,14.873z"/>
				</g>
			</g>
		</g>
	</g>
</svg>
