<?xml version="1.0" encoding="UTF-8" standalone="no"?>
<svg width="55px" height="46px" viewBox="0 0 55 46" version="1.1" xmlns="http://www.w3.org/2000/svg" xmlns:xlink="http://www.w3.org/1999/xlink">
    <!-- Generator: Sketch 41.2 (35397) - http://www.bohemiancoding.com/sketch -->
    <title>Page 1</title>
    <desc>Created with Sketch.</desc>
    <defs></defs>
    <g id="External-players" stroke="none" stroke-width="1" fill="none" fill-rule="evenodd" stroke-linecap="round" stroke-linejoin="round">
        <g id="DL2---Desktop-widget---large---2---share-a-segment" transform="translate(-765.000000, -361.000000)" stroke="#FFFFFF" stroke-width="2">
            <g id="Group-15" transform="translate(338.000000, 230.000000)">
                <g id="Group-33">
                    <g id="Group-14" transform="translate(399.000000, 90.000000)">
                        <g id="Page-1" transform="translate(29.000000, 42.000000)">
                            <path d="M16,36 C16,31.5794286 12.4205714,28 8,28 C3.57942857,28 0,31.5794286 0,36 C0,40.416 3.57942857,44 8,44 C12.4205714,44 16,40.416 16,36 Z" id="Stroke-1"></path>
                            <path d="M29.0471989,21.9669935 L53,7.42663585 C51.690337,5.15530205 48.4325502,4.29787952 46.2061231,5.63536314 L9,28" id="Stroke-3"></path>
                            <path d="M16,8 C16,12.416 12.4205714,16 8,16 C3.57942857,16 0,12.416 0,8 C0,3.57942857 3.57942857,0 8,0 C12.4205714,0 16,3.57942857 16,8 Z" id="Stroke-5"></path>
                            <path d="M24.0031478,18.9483763 L53,36.5643856 C51.6830283,38.842132 48.4129008,39.7067655 46.1780398,38.3607155 L9,16" id="Stroke-7"></path>
                        </g>
                    </g>
                </g>
            </g>
        </g>
    </g>
</svg>