<?xml version="1.0" encoding="UTF-8" standalone="no"?>
<svg width="33px" height="28px" viewBox="0 0 33 28" version="1.1" xmlns="http://www.w3.org/2000/svg" xmlns:xlink="http://www.w3.org/1999/xlink">
    <!-- Generator: Sketch 41.2 (35397) - http://www.bohemiancoding.com/sketch -->
    <title>Group 39</title>
    <desc>Created with Sketch.</desc>
    <defs></defs>
    <g id="External-players" stroke="none" stroke-width="1" fill="none" fill-rule="evenodd">
        <g id="DL1---Desktop-widget---large---1---basic-interactions" transform="translate(-534.000000, -1411.000000)" fill="#FFFFFF">
            <g id="Group-13" transform="translate(497.000000, 1396.000000)">
                <g id="Group-39" transform="translate(36.745546, 14.850229)">
                    <g id="Group" transform="translate(1.192180, 17.267066)">
                        <path d="M31.0422953,8.23643017 L26.9444988,8.30084626 L30.2915708,5.37729531 L30.3427034,5.33463378 C30.9994498,4.78557846 31.4141502,3.94972323 31.4141502,3.01261749 C31.4141502,2.05795978 30.9757232,1.20144478 30.2956284,0.652036301 C29.7991571,0.24721086 29.1740462,0.00448511132 28.493298,0 L22.7775856,0 L22.0621759,0 C21.7411786,0 21.4831084,0.264409673 21.4831084,0.588008689 L21.4831084,0.652036301 L21.4831084,1.3205651 L21.4831084,9.55738374 C21.4831084,9.88137123 21.7411786,10.1457456 22.0621759,10.1457456 L22.77762,10.1457456 C23.0937688,10.1457456 23.3521141,9.88137123 23.3521141,9.55738374 L23.3521141,1.90853847 L28.4702935,1.90853847 C29.0644566,1.90853847 29.5452133,2.40292488 29.5452133,3.01261749 C29.5452133,3.32798791 29.4162642,3.61333988 29.2091204,3.81336878 L24.3493893,8.1764992 C24.1026667,8.37645747 23.9425635,8.69221637 23.9425635,9.04209037 C23.9425635,9.65100603 24.4270683,10.1453571 25.0256673,10.1453571 L31.042708,10.1453571 C31.3596133,10.1453571 31.6176147,9.88133592 31.6176147,9.55703059 L31.6176147,8.82514518 C31.6173052,8.50083984 31.3596133,8.23643017 31.0422953,8.23643017" id="Shape"></path>
                        <path d="M9.54376271,0 L2.98031605,0 C2.28598624,0.00893431592 1.64776566,0.251608699 1.14071226,0.652346316 C0.447049162,1.20620328 0,2.05817682 0,3.01690307 C0,4.67070498 1.33255039,6.01215897 2.99228181,6.02978041 L7.12573204,6.02978041 C7.7364419,6.02978041 8.227038,6.52406349 8.227038,7.13332733 C8.227038,7.74230867 7.7364419,8.23669769 7.12573204,8.23669769 L0.586673072,8.23669769 C0.2635625,8.23669769 2.49330875e-16,8.5003483 2.49330875e-16,8.82530314 L2.49330875e-16,9.55745797 C2.49330875e-16,9.88138872 0.263141418,10.1457456 0.586673072,10.1457456 L7.14980392,10.1457456 C8.80192077,10.1326796 10.1345062,8.78557545 10.1345062,7.13329202 C10.1345062,5.47581751 8.80192077,4.13362194 7.14190863,4.12094439 L3.0041423,4.12094439 C2.39806434,4.11716584 1.90708225,3.62284745 1.90708225,3.01757403 C1.90708225,2.40792174 2.39806434,1.91434492 3.0041423,1.90947166 L9.54376271,1.90947166 C9.87076829,1.90947166 10.1345062,1.64543261 10.1345062,1.32185499 L10.1345062,0.657219579 L10.1345062,0.592772439 C10.1345062,0.264356873 9.87076829,0 9.54376271,0" id="Shape"></path>
                        <path d="M21.1380145,0.587973373 C21.1380145,0.264021199 20.8743126,0 20.5513786,0 L11.5939339,0 C11.2906153,0 11.0398265,0.28538728 11.0079296,0.652071617 C11.0079296,0.677534336 11.0035434,9.41287134 11.0035434,9.41287134 C11.0035434,9.81808525 11.2668944,10.1457456 11.5938988,10.1457456 L20.5513786,10.1457456 C20.8743126,10.1457456 21.1380145,9.88172439 21.1380145,9.55741906 L21.1380145,8.82553365 C21.1380145,8.50122832 20.8743126,8.23681865 20.5513786,8.23681865 L12.9106892,8.23681865 L12.9106892,6.02534092 L19.5138,6.02534092 C19.83712,6.02534092 20.1007868,5.76054278 20.1007868,5.43694376 L20.1007868,4.70435204 C20.1007868,4.3800467 19.8374358,4.11644929 19.5138,4.11644929 L12.9106892,4.11644929 L12.9106892,1.90896226 L20.5514136,1.90896226 C20.8743476,1.90896226 21.1380496,1.64490575 21.1380496,1.32098889 L21.1380496,0.587973373 L21.1380145,0.587973373 Z" id="Shape"></path>
                    </g>
                    <path d="M0.72,2.808 L0.72,11.28 L1.476,11.28 L1.476,7.824 L1.5,7.824 C1.5800004,8.04800112 1.69399926,8.24399916 1.842,8.412 C1.99000074,8.58000084 2.15999904,8.71999944 2.352,8.832 C2.54400096,8.94400056 2.75199888,9.02799972 2.976,9.084 C3.20000112,9.14000028 3.42399888,9.168 3.648,9.168 C4.12000236,9.168 4.52999826,9.08200086 4.878,8.91 C5.22600174,8.73799914 5.51599884,8.5020015 5.748,8.202 C5.98000116,7.9019985 6.15199944,7.55400198 6.264,7.158 C6.37600056,6.76199802 6.432,6.3440022 6.432,5.904 C6.432,5.4639978 6.37600056,5.04600198 6.264,4.65 C6.15199944,4.25399802 5.98000116,3.9060015 5.748,3.606 C5.51599884,3.3059985 5.22600174,3.06800088 4.878,2.892 C4.52999826,2.71599912 4.12000236,2.628 3.648,2.628 C3.14399748,2.628 2.69400198,2.74599882 2.298,2.982 C1.90199802,3.21800118 1.61600088,3.55199784 1.44,3.984 L1.416,3.984 L1.416,2.808 L0.72,2.808 Z M5.676,5.904 C5.676,6.2240016 5.63800038,6.54199842 5.562,6.858 C5.48599962,7.17400158 5.36600082,7.45599876 5.202,7.704 C5.03799918,7.95200124 4.82800128,8.15399922 4.572,8.31 C4.31599872,8.46600078 4.0080018,8.544 3.648,8.544 C3.247998,8.544 2.91000138,8.46600078 2.634,8.31 C2.35799862,8.15399922 2.13400086,7.95200124 1.962,7.704 C1.78999914,7.45599876 1.66600038,7.17400158 1.59,6.858 C1.51399962,6.54199842 1.476,6.2240016 1.476,5.904 C1.476,5.55199824 1.50999966,5.2160016 1.578,4.896 C1.64600034,4.5759984 1.76399916,4.2960012 1.932,4.056 C2.10000084,3.8159988 2.3239986,3.62400072 2.604,3.48 C2.8840014,3.33599928 3.23199792,3.264 3.648,3.264 C4.0080018,3.264 4.31599872,3.34199922 4.572,3.498 C4.82800128,3.65400078 5.03799918,3.85599876 5.202,4.104 C5.36600082,4.35200124 5.48599962,4.63399842 5.562,4.95 C5.63800038,5.26600158 5.676,5.5839984 5.676,5.904 Z M7.62,0.432 L7.62,9 L8.376,9 L8.376,0.432 L7.62,0.432 Z M9.756,4.704 L10.512,4.704 C10.5280001,4.19999748 10.6879985,3.83400114 10.992,3.606 C11.2960015,3.37799886 11.6879976,3.264 12.168,3.264 C12.3920011,3.264 12.601999,3.28199982 12.798,3.318 C12.994001,3.35400018 13.1659993,3.41999952 13.314,3.516 C13.4620007,3.61200048 13.5779996,3.74199918 13.662,3.906 C13.7460004,4.07000082 13.788,4.27999872 13.788,4.536 C13.788,4.70400084 13.7660002,4.83999948 13.722,4.944 C13.6779998,5.04800052 13.6160004,5.1299997 13.536,5.19 C13.4559996,5.2500003 13.3560006,5.29199988 13.236,5.316 C13.1159994,5.34000012 12.9760008,5.35999992 12.816,5.376 C12.407998,5.42400024 12.006002,5.47399974 11.61,5.526 C11.213998,5.57800026 10.8580016,5.66799936 10.542,5.796 C10.2259984,5.92400064 9.97200096,6.10999878 9.78,6.354 C9.58799904,6.59800122 9.492,6.93599784 9.492,7.368 C9.492,7.68000156 9.54599946,7.94999886 9.654,8.178 C9.76200054,8.40600114 9.90999906,8.59399926 10.098,8.742 C10.2860009,8.89000074 10.5059987,8.99799966 10.758,9.066 C11.0100013,9.13400034 11.2799986,9.168 11.568,9.168 C11.8720015,9.168 12.1339989,9.14000028 12.354,9.084 C12.5740011,9.02799972 12.7699991,8.94800052 12.942,8.844 C13.1140009,8.73999948 13.2699993,8.61000078 13.41,8.454 C13.5500007,8.29799922 13.6879993,8.120001 13.824,7.92 L13.848,7.92 C13.848,8.0800008 13.8579999,8.22599934 13.878,8.358 C13.8980001,8.49000066 13.9399997,8.60399952 14.004,8.7 C14.0680003,8.79600048 14.1579994,8.86999974 14.274,8.922 C14.3900006,8.97400026 14.543999,9 14.736,9 C14.8400005,9 14.9259997,8.99600004 14.994,8.988 C15.0620003,8.97999996 15.1399996,8.96800008 15.228,8.952 L15.228,8.316 C15.1559996,8.34800016 15.0760004,8.364 14.988,8.364 C14.6919985,8.364 14.544,8.21200152 14.544,7.908 L14.544,4.62 C14.544,4.20399792 14.4760007,3.8660013 14.34,3.606 C14.2039993,3.3459987 14.0280011,3.14400072 13.812,3 C13.5959989,2.85599928 13.3520014,2.75800026 13.08,2.706 C12.8079986,2.65399974 12.5360014,2.628 12.264,2.628 C11.9039982,2.628 11.5760015,2.6679996 11.28,2.748 C10.9839985,2.8280004 10.7260011,2.95199916 10.506,3.12 C10.2859989,3.28800084 10.1120006,3.50399868 9.984,3.768 C9.85599936,4.03200132 9.78000012,4.3439982 9.756,4.704 Z M13.788,5.616 L13.788,6.6 C13.788,6.90400152 13.7300006,7.1759988 13.614,7.416 C13.4979994,7.6560012 13.342001,7.85999916 13.146,8.028 C12.949999,8.19600084 12.7200013,8.32399956 12.456,8.412 C12.1919987,8.50000044 11.9160014,8.544 11.628,8.544 C11.4519991,8.544 11.2800008,8.51600028 11.112,8.46 C10.9439992,8.40399972 10.7960006,8.32200054 10.668,8.214 C10.5399994,8.10599946 10.4380004,7.97800074 10.362,7.83 C10.2859996,7.68199926 10.248,7.51200096 10.248,7.32 C10.248,7.01599848 10.3379991,6.78200082 10.518,6.618 C10.6980009,6.45399918 10.9279986,6.32800044 11.208,6.24 C11.4880014,6.15199956 11.7979983,6.08600022 12.138,6.042 C12.4780017,5.99799978 12.8079984,5.94800028 13.128,5.892 C13.2320005,5.87599992 13.3519993,5.8480002 13.488,5.808 C13.6240007,5.7679998 13.7159998,5.70400044 13.764,5.616 L13.788,5.616 Z M15.36,2.808 L17.832,8.976 L17.568,9.672 C17.5039997,9.81600072 17.4440003,9.9479994 17.388,10.068 C17.3319997,10.1880006 17.2640004,10.2899996 17.184,10.374 C17.1039996,10.4580004 17.0100005,10.5239998 16.902,10.572 C16.7939995,10.6200002 16.6560008,10.644 16.488,10.644 C16.3999996,10.644 16.3140004,10.6380001 16.23,10.626 C16.1459996,10.6139999 16.0600004,10.6000001 15.972,10.584 L15.972,11.22 C16.0360003,11.2440001 16.1099996,11.258 16.194,11.262 C16.2780004,11.266 16.3959992,11.272 16.548,11.28 C16.7880012,11.28 16.9859992,11.2580002 17.142,11.214 C17.2980008,11.1699998 17.4339994,11.0980005 17.55,10.998 C17.6660006,10.8979995 17.7719995,10.7620009 17.868,10.59 C17.9640005,10.4179991 18.0679994,10.2000013 18.18,9.936 L20.868,2.808 L20.112,2.808 L18.204,8.088 L16.164,2.808 L15.36,2.808 Z" id="play"></path>
                </g>
            </g>
        </g>
    </g>
</svg>