<?xml version="1.0" encoding="UTF-8" standalone="no"?>
<svg width="48px" height="39px" viewBox="0 0 48 39" version="1.1" xmlns="http://www.w3.org/2000/svg" xmlns:xlink="http://www.w3.org/1999/xlink">
    <!-- Generator: Sketch 41.2 (35397) - http://www.bohemiancoding.com/sketch -->
    <title>Page 1</title>
    <desc>Created with Sketch.</desc>
    <defs></defs>
    <g id="External-players" stroke="none" stroke-width="1" fill="none" fill-rule="evenodd">
        <g id="DL2---Desktop-widget---large---2---share-a-segment" transform="translate(-1049.000000, -1734.000000)" fill="#FFFFFF">
            <path d="M1097,1739 C1095.25913,1739.8435 1093.79202,1739.8695 1092,1739 C1094.24327,1737.874 1094.33523,1737.02033 1095,1734 C1093.1825,1735.84817 1091.10159,1736.66717 1089,1737 C1087.11727,1735.19817 1084.58938,1734 1082,1734 C1076.42827,1734 1072.07824,1738.41133 1071,1745 C1072.07824,1744.61883 1072.16379,1745.37067 1073,1746 C1064.25076,1745.6805 1057.09054,1741.761 1052,1736 C1051.46159,1737.2565 1050.9804,1738.94867 1050,1742 C1050.9804,1744.17033 1052.69774,1747.182 1055,1749 C1053.71146,1748.89583 1052.2144,1748.45383 1050,1748 C1050.90127,1747.75833 1050.90127,1747.79733 1050,1748 C1050.90127,1752.61167 1054.25254,1756.58967 1058,1758 C1057.27446,1757.8875 1055.77312,1757.94817 1055,1758 C1055.54643,1761.57517 1059.13509,1764.42217 1064,1764 C1059.22919,1767.80433 1054.07289,1769.18017 1049,1769 C1053.30084,1771.37067 1058.40795,1773 1064,1773 C1081.77277,1773 1091.54429,1757.998 1091,1745 C1091.54429,1744.56033 1091.53787,1744.13783 1091,1743 C1093.41561,1742.3265 1095.69756,1741.033 1097,1739 L1097,1739 Z" id="Page-1"></path>
        </g>
    </g>
</svg>