<?xml version="1.0" encoding="utf-8"?>
<!-- Generator: Adobe Illustrator 16.0.0, SVG Export Plug-In . SVG Version: 6.00 Build 0)  -->
<svg version="1.2" baseProfile="tiny" id="Capa_1" xmlns="http://www.w3.org/2000/svg" xmlns:xlink="http://www.w3.org/1999/xlink"
	 x="0px" y="0px" width="1024px" height="91.654px" viewBox="0 0 1024 91.654" xml:space="preserve">
<g>
	<g>
		<path fill="#666565" d="M268.275,39.28v13.094H242.19v39.28h-13.196V0h39.28v13.093h13.094V39.28H268.275z M267.751,13.093H242.19
			V39.28h25.561V13.093z"/>
		<path fill="#666565" d="M333.742,0h13.196v78.561h-13.196v13.094h-26.187V78.561H294.36V0h13.196v78.561h26.187V0z"/>
		<path fill="#666565" d="M399.209,13.093h13.094V39.28h-13.094v13.094h13.094v26.187h-13.094v13.094h-39.28V0h39.28V13.093z
			 M373.125,39.28h25.561V13.093h-25.561V39.28z M398.686,78.561V52.374h-25.561v26.187H398.686z"/>
		<path fill="#666565" d="M438.592,78.561h26.084v13.094h-39.28V0h13.196V78.561z"/>
		<path fill="#666565" d="M477.771,0h13.196v91.654h-13.196V0z"/>
		<path fill="#666565" d="M556.446,26.187H543.25V13.093h-26.199v65.467h26.199V65.467h13.196v13.093H543.25v13.094h-26.199V78.561
			h-13.196V13.093h13.196V0h26.199v13.093h13.196V26.187z"/>
		<path fill="#666565" d="M569.438,0h13.195v91.654h-13.195V0z"/>
		<path fill="#666565" d="M634.904,13.093h13.094v65.467h-13.094v13.094h-39.28V0h39.28V13.093z M634.367,13.093H608.82v65.467
			h25.547V13.093z"/>
		<path fill="#666565" d="M700.372,0v13.093h13.195v78.561h-13.195v-39.28h-26.188v39.28h-13.195V13.093h13.195V0H700.372z
			 M674.185,13.618V39.28h26.188V13.618H674.185z"/>
		<path fill="#666565" d="M765.839,13.093h13.094v65.467h-13.094v13.094h-39.28V0h39.28V13.093z M765.302,13.093h-25.547v65.467
			h25.547V13.093z"/>
	</g>
	<polyline fill="#666565" points="81.323,2.135 40.661,42.797 0,2.135 	"/>
	<polyline fill="#666565" points="1024,2.135 983.339,42.797 942.678,2.135 	"/>
</g>
<g>
</g>
<g>
</g>
<g>
</g>
<g>
</g>
<g>
</g>
<g>
</g>
</svg>
