<?xml version="1.0" encoding="utf-8"?>
<!-- Generator: Adobe Illustrator 16.0.0, SVG Export Plug-In . SVG Version: 6.00 Build 0)  -->
<!DOCTYPE svg PUBLIC "-//W3C//DTD SVG 1.1//EN" "http://www.w3.org/Graphics/SVG/1.1/DTD/svg11.dtd">
<svg version="1.1" id="Layer_1" xmlns="http://www.w3.org/2000/svg" xmlns:xlink="http://www.w3.org/1999/xlink" x="0px" y="0px"
	 width="90px" height="38px" viewBox="0 0 90 38" enable-background="new 0 0 90 38" xml:space="preserve">
<g>
	<g>
		<path fill-rule="evenodd" clip-rule="evenodd" fill="#FFFFFF" d="M72.845,1.367c-0.012-0.011,0.733,2.111,0.733,2.111h-1.5
			L72.845,1.367z M70.822,5.544c0.311,0,0.488-0.088,0.577-0.321l0.356-0.9h2.154l0.346,0.9c0.089,0.233,0.288,0.321,0.577,0.321
			c0.334,0,0.601-0.222,0.601-0.511c0-0.133-0.078-0.344-0.123-0.467l-1.6-4.078c-0.145-0.377-0.399-0.433-0.7-0.433h-0.312
			c-0.32,0-0.521,0.089-0.633,0.355l-1.711,4.155c-0.045,0.123-0.133,0.334-0.133,0.467C70.223,5.345,70.467,5.544,70.822,5.544"/>
		<path fill="#FFFFFF" d="M49.667,5.456h3.178c0.378,0,0.655-0.111,0.655-0.478c0-0.367-0.277-0.466-0.655-0.466h-2.646V3.189h2.269
			c0.343,0,0.599-0.089,0.599-0.456c0-0.366-0.256-0.455-0.599-0.455h-2.269V1.089h2.578c0.389,0,0.656-0.1,0.656-0.467
			c0-0.377-0.268-0.477-0.656-0.477h-3.11c-0.468,0-0.757,0.167-0.757,0.7v3.911C48.91,5.289,49.199,5.456,49.667,5.456"/>
		<path fill-rule="evenodd" clip-rule="evenodd" fill="#FFFFFF" d="M39.145,1.123h1.089c0.956,0,1.389,0.633,1.389,1.677
			c0,0.823-0.344,1.678-1.389,1.678h-1.089V1.123z M38.566,5.456h1.601c1.756,0,2.778-0.978,2.778-2.656
			c0-2.078-1.323-2.655-2.757-2.655h-1.622c-0.455,0-0.756,0.167-0.756,0.7v3.911C37.811,5.289,38.111,5.456,38.566,5.456"/>
		<path fill="#FFFFFF" d="M19.544,5.556c1.289,0,2.289-0.756,2.289-1.511c0-0.289-0.311-0.456-0.622-0.456
			c-0.244,0-0.389,0.156-0.522,0.322L20.545,4.1c-0.212,0.255-0.467,0.511-1,0.511c-1.156,0-1.578-0.855-1.578-1.833
			c0-1.156,0.689-1.822,1.533-1.822c0.611,0,0.867,0.245,1.056,0.489c0.188,0.233,0.322,0.466,0.7,0.466
			c0.389,0,0.577-0.2,0.577-0.533C21.833,0.878,21.012,0,19.5,0c-1.867,0-2.822,1.289-2.822,2.778
			C16.678,4.611,17.745,5.556,19.544,5.556"/>
		<path fill="#FFFFFF" d="M63.789,5.511c0.545,0,0.766-0.267,0.766-0.733V0.589c0-0.389-0.231-0.578-0.621-0.578
			c-0.378,0-0.622,0.189-0.622,0.578v3.178l-3.001-3.444c-0.144-0.211-0.378-0.311-0.655-0.311c-0.556,0-0.811,0.211-0.811,0.7
			v4.233c0,0.377,0.233,0.566,0.621,0.566c0.39,0,0.623-0.189,0.623-0.566V1.855L63.077,5.2C63.244,5.434,63.378,5.511,63.789,5.511
			"/>
		<path fill-rule="evenodd" clip-rule="evenodd" fill="#FFFFFF" d="M28.679,3.478l0.766-2.111c-0.011-0.011,0.733,2.111,0.733,2.111
			H28.679z M31.434,5.544c0.333,0,0.6-0.222,0.6-0.511c0-0.133-0.078-0.344-0.121-0.467l-1.602-4.078
			c-0.144-0.377-0.399-0.433-0.699-0.433H29.3c-0.322,0-0.521,0.089-0.634,0.355l-1.711,4.155c-0.043,0.123-0.132,0.334-0.132,0.467
			c0,0.312,0.243,0.511,0.599,0.511c0.312,0,0.489-0.088,0.578-0.321l0.344-0.9h2.167l0.345,0.9
			C30.944,5.456,31.144,5.544,31.434,5.544"/>
	</g>
	<g>
		<path fill="#FFFFFF" d="M88.366,32.145l-11.645,0.167l9.511-7.622l0.146-0.112c1.866-1.432,3.045-3.611,3.045-6.055
			c0-2.489-1.246-4.722-3.179-6.155c-1.411-1.056-3.188-1.689-5.122-1.7H64.879h-2.034c-0.911,0-1.645,0.689-1.645,1.533v0.167
			v1.744v21.477c0,0.845,0.733,1.534,1.645,1.534h2.034c0.899,0,1.632-0.689,1.632-1.534V15.645h14.545
			c1.689,0,3.056,1.289,3.056,2.878c0,0.822-0.367,1.567-0.956,2.089L69.345,31.988c-0.701,0.522-1.155,1.345-1.155,2.257
			c0,1.588,1.377,2.877,3.078,2.877h17.099c0.9,0,1.634-0.689,1.634-1.534v-1.909C90,32.834,89.267,32.145,88.366,32.145"/>
		<path fill="#FFFFFF" d="M26.578,10.655H8.3c-1.934,0.022-3.711,0.656-5.123,1.7C1.245,13.8,0,16.022,0,18.522
			c0,4.312,3.711,7.81,8.333,7.856h11.511c1.701,0,3.067,1.289,3.067,2.878c0,1.588-1.366,2.877-3.067,2.877H1.634
			c-0.9,0-1.634,0.688-1.634,1.535v1.909c0,0.845,0.733,1.534,1.634,1.534h18.277c4.601-0.034,8.312-3.546,8.312-7.855
			c0-4.323-3.711-7.823-8.334-7.855H8.366c-1.688-0.011-3.055-1.3-3.055-2.878c0-1.589,1.367-2.877,3.055-2.889h18.212
			c0.911,0,1.645-0.688,1.645-1.533v-1.733V12.2C28.223,11.344,27.489,10.655,26.578,10.655"/>
		<path fill="#FFFFFF" d="M58.834,12.2c0-0.844-0.734-1.533-1.634-1.533H32.255c-0.845,0-1.543,0.744-1.632,1.7
			c0,0.066-0.012,22.844-0.012,22.844c0,1.057,0.733,1.911,1.644,1.911H57.2c0.899,0,1.634-0.689,1.634-1.534v-1.909
			c0-0.845-0.734-1.534-1.634-1.534H35.922v-5.767h18.389c0.9,0,1.634-0.69,1.634-1.534v-1.91c0-0.846-0.733-1.533-1.634-1.533
			H35.922v-5.756H57.2c0.899,0,1.634-0.689,1.634-1.533V12.2z"/>
	</g>
</g>
</svg>
