<?xml version="1.0" encoding="UTF-8" standalone="no"?>
<svg width="52px" height="52px" viewBox="0 0 52 52" version="1.1" xmlns="http://www.w3.org/2000/svg" xmlns:xlink="http://www.w3.org/1999/xlink">
    <!-- Generator: Sketch 41.2 (35397) - http://www.bohemiancoding.com/sketch -->
    <title>Group 17</title>
    <desc>Created with Sketch.</desc>
    <defs></defs>
    <g id="External-players" stroke="none" stroke-width="1" fill="none" fill-rule="evenodd">
        <g id="DL2---Desktop-widget---large---2---share-a-segment" transform="translate(-1567.000000, -2240.000000)">
            <g id="Group-11" transform="translate(1045.000000, 2083.000000)">
                <g id="Group-17" transform="translate(524.000000, 159.000000)">
                    <path d="M24,0 C10.7666087,0 0,10.7631902 0,24 C0,29.2501315 1.69878261,34.1153374 5,38 L2,47 L11,44 C14.5857391,46.5381245 19.1248696,48 24,48 C37.2333913,48 48,37.2347064 48,24 C48,10.767397 37.2354783,0 24,0" id="Page-1-Copy-4" stroke="#FFFFFF" stroke-width="3" stroke-linejoin="round"></path>
                    <path d="M36.0034365,29.6069528 C35.6528561,29.1461704 35.2602946,28.9969197 34.1572826,28.6838758 C34.0843627,28.4139638 31.1962318,27.0022272 31.3880519,26.837722 C30.1201928,26.6124193 29.7276313,26.5140894 29.541898,26.837722 C28.9460134,27.683513 27.8173991,28.9969197 27.6957442,29.6069528 C27.1339215,29.7800472 26.7886777,29.8274562 25.8495903,29.6069528 C25.6144983,29.2445003 23.7217912,28.6264266 21.2342057,26.837722 C19.7295812,25.0883057 18.5518968,23.177896 17.541898,23.1454143 C17.8666667,22.0084724 18.1716028,21.692412 18.4649749,21.2992605 C19.4561902,20.4229026 19.6997886,19.8715527 20.3111288,19.4531066 C20.1344102,19.0146778 20.0345173,18.6740349 20.3111288,18.5300297 C19.7400962,18.0875672 18.5641643,15.2131732 17.541898,13.9146451 C17.5196704,12.7180517 15.0521411,12.6723985 13.8495903,13.9146451 C10.9232356,17.1587007 11.6470208,21.0199056 14.7726672,24.0684912 C14.6963823,25.0531879 18.4660239,31.1443747 24.0034365,33.2992605 C30.4128614,35.8203131 30.4128614,35.0406974 32.3111288,35.1454143 C34.5873321,34.6631808 36.6833299,30.8634321 36.0034365,29.6069528" id="Path-Copy" fill="#FFFFFF"></path>
                </g>
            </g>
        </g>
    </g>
</svg>