<?xml version="1.0" encoding="utf-8"?>
<!-- Generator: Adobe Illustrator 15.1.0, SVG Export Plug-In . SVG Version: 6.00 Build 0)  -->
<!DOCTYPE svg PUBLIC "-//W3C//DTD SVG 1.1//EN" "http://www.w3.org/Graphics/SVG/1.1/DTD/svg11.dtd">
<svg version="1.1" id="Layer_1" xmlns="http://www.w3.org/2000/svg" xmlns:xlink="http://www.w3.org/1999/xlink" x="0px" y="0px"
	 width="35px" height="583.375px" viewBox="0 0 35 583.375" enable-background="new 0 0 35 583.375" xml:space="preserve">
<g id="png" display="none">
</g>
<g id="Group" transform="translate(-528.000000, -144.000000)" opacity="0.8">
	<path id="Shape" fill="#FFFFFF" d="M555.537,153.409L538,162.817V144L555.537,153.409L555.537,153.409z"/>
</g>
<g id="Group_1_" transform="translate(-528.000000, -144.000000)">
	<path id="Shape_4_" fill="#FFFFFF" d="M555.537,679.409L538,688.816V670L555.537,679.409L555.537,679.409z"/>
</g>
<g opacity="0.8">
	<rect x="9" y="60" fill="#FFFFFF" width="6.039" height="19.025"/>
	<rect x="20.046" y="60" fill="#FFFFFF" width="6.038" height="19.025"/>
</g>
<g opacity="0.8">
	<g id="Page-1_1_">
		<g id="Icons-AV_1_" transform="translate(-131.000000, -171.000000)">
			<g id="volume-mute_1_" transform="translate(131.500000, 171.000000)">
				<path id="Shape_2_" fill="#FFFFFF" d="M8.5,181.643v6.77h4.514l5.642,5.643V176l-5.642,5.643H8.5L8.5,181.643z"/>
			</g>
		</g>
	</g>
	<path fill="#FFFFFF" d="M23.273,179.713l-1.123,1.68c0.97,0.914,1.58,2.197,1.58,3.635c0,1.436-0.61,2.721-1.58,3.635l1.123,1.68
		c1.496-1.285,2.449-3.188,2.449-5.316C25.725,182.898,24.771,180.996,23.273,179.713z"/>
</g>
<g opacity="0.8">
	<g id="Page-1_2_">
		<g id="Icons-AV_2_" transform="translate(-131.000000, -171.000000)">
			<g id="volume-mute_2_" transform="translate(131.500000, 171.000000)">
				<path id="Shape_3_" fill="#FFFFFF" d="M6.5,239.643v6.771h4.514l5.642,5.645V234l-5.642,5.643H6.5L6.5,239.643z"/>
			</g>
		</g>
	</g>
	<path fill="#FFFFFF" d="M24.242,234.375l-1.111,1.664c2.031,1.65,3.332,4.166,3.332,6.986c0,2.822-1.301,5.338-3.332,6.988
		l1.111,1.659c2.566-2.012,4.221-5.135,4.221-8.647C28.463,239.51,26.809,236.387,24.242,234.375z"/>
	<path fill="#FFFFFF" d="M21.273,237.713l-1.123,1.68c0.97,0.914,1.58,2.197,1.58,3.635s-0.61,2.724-1.58,3.638l1.123,1.68
		c1.496-1.282,2.449-3.188,2.449-5.313C23.725,240.898,22.771,238.996,21.273,237.713z"/>
</g>
<path opacity="0.8" fill="#FFFFFF" enable-background="new    " d="M25.936,354.453c-0.34-0.049-0.705-0.356-0.811-0.686
	l-0.506-1.232c-0.153-0.304-0.122-0.777,0.081-1.059l0.827-1.098c0.203-0.278,0.188-0.717-0.041-0.973l-0.901-0.9
	c-0.257-0.229-0.694-0.244-0.97-0.038l-1.1,0.823c-0.273,0.202-0.748,0.241-1.055,0.084l-1.23-0.508
	c-0.33-0.108-0.639-0.463-0.687-0.803l-0.194-1.363c-0.05-0.335-0.371-0.644-0.711-0.682c0,0-0.212-0.021-0.642-0.021
	c-0.427,0-0.641,0.021-0.641,0.021c-0.342,0.038-0.661,0.347-0.71,0.682l-0.195,1.363c-0.049,0.34-0.356,0.7-0.682,0.803
	l-1.235,0.508c-0.305,0.155-0.778,0.118-1.053-0.084l-1.1-0.824c-0.275-0.206-0.711-0.192-0.968,0.037l-0.904,0.9
	c-0.228,0.258-0.246,0.692-0.039,0.973l0.824,1.099c0.207,0.28,0.243,0.756,0.084,1.06l-0.509,1.232
	c-0.104,0.327-0.467,0.639-0.808,0.686l-1.359,0.192c-0.339,0.05-0.647,0.367-0.683,0.713c0,0-0.022,0.21-0.022,0.64
	s0.022,0.642,0.022,0.642c0.036,0.345,0.343,0.66,0.683,0.71l1.359,0.196c0.339,0.051,0.705,0.358,0.808,0.683l0.509,1.235
	c0.158,0.305,0.122,0.78-0.084,1.053l-0.824,1.104c-0.207,0.276-0.257,0.647-0.11,0.828c0.146,0.182,0.564,0.627,0.566,0.629
	c0,0.002,0.142,0.131,0.312,0.287c0.169,0.151,0.868,0.371,1.143,0.169l1.099-0.826c0.275-0.204,0.749-0.242,1.054-0.081
	l1.233,0.502c0.328,0.108,0.636,0.468,0.683,0.811l0.195,1.355c0.049,0.34,0.368,0.649,0.712,0.687c0,0,0.212,0.021,0.639,0.021
	c0.43,0,0.643-0.021,0.643-0.021c0.34-0.035,0.661-0.347,0.709-0.687l0.195-1.355c0.049-0.342,0.354-0.711,0.686-0.811l1.231-0.504
	c0.306-0.159,0.776-0.123,1.056,0.083l1.098,0.826c0.279,0.202,0.719,0.188,0.971-0.04l0.9-0.902
	c0.229-0.259,0.246-0.692,0.041-0.971l-0.823-1.104c-0.206-0.271-0.238-0.747-0.086-1.053l0.509-1.235
	c0.105-0.325,0.469-0.633,0.809-0.683l1.356-0.196c0.343-0.05,0.649-0.365,0.687-0.71c0,0,0.022-0.212,0.022-0.642
	s-0.022-0.64-0.022-0.64c-0.035-0.344-0.344-0.663-0.687-0.713L25.936,354.453z M18.001,358.496c-1.379,0-2.5-1.118-2.5-2.498
	c0-1.381,1.121-2.498,2.5-2.498c1.381,0,2.5,1.117,2.5,2.498C20.501,357.378,19.382,358.496,18.001,358.496z"/>
<path opacity="0.8" fill="#FFFFFF" enable-background="new    " d="M26.803,298.251l-7.812,6.25v-3.112
	c-5.207-0.187-8.343,2.135-10.99,4.713c0-6.131,5.46-10.957,10.99-11.013V292L26.803,298.251z"/>
<g opacity="0.8">
	<g id="Page-1">
		<g id="Icons-AV" transform="translate(-131.000000, -171.000000)">
			<g id="volume-mute" transform="translate(131.500000, 171.000000)">
				<path id="Shape_1_" fill="#FFFFFF" d="M7.5,123.642v6.771h4.514l5.643,5.642V118l-5.643,5.642H7.5L7.5,123.642z"/>
			</g>
		</g>
	</g>
	<polygon fill="#FFFFFF" points="27.742,124.027 26.742,123.027 23.742,126.027 20.742,123.027 19.742,124.027 22.742,127.027 
		19.742,130.027 20.742,131.027 23.742,128.027 26.742,131.027 27.742,130.027 24.742,127.027 	"/>
</g>
<path opacity="0.8" fill="#FFFFFF" enable-background="new    " d="M18.217,466c-4.576,0-8.427,3.078-9.613,7.276L6,473.273
	l4.376,6.062l5.195-6.052l-3.69-0.004c1.056-2.46,3.489-4.188,6.335-4.188c3.813,0,6.906,3.093,6.906,6.907
	s-3.093,6.907-6.906,6.907c-1.662,0-3.187-0.588-4.379-1.567l-2.006,2.354c1.732,1.438,3.958,2.307,6.386,2.307
	c5.523,0,10-4.477,10-10C28.217,470.478,23.74,466,18.217,466z"/>
<g>
	<polygon opacity="0.8" fill="#FFFFFF" enable-background="new    " points="24.436,408.134 26.786,408.134 26.786,409.996 
		28.712,409.996 28.712,406.134 24.436,406.134 	"/>
	<polygon opacity="0.8" fill="#FFFFFF" enable-background="new    " points="8.81,409.996 8.81,408.134 11.16,408.134 
		11.16,406.134 6.883,406.134 6.883,409.996 	"/>
	<polygon opacity="0.8" fill="#FFFFFF" enable-background="new    " points="26.786,423.271 26.786,425.134 24.436,425.134 
		24.436,427.134 28.712,427.134 28.712,423.271 	"/>
	<polygon opacity="0.8" fill="#FFFFFF" enable-background="new    " points="11.16,425.134 8.81,425.134 8.81,423.271 
		6.883,423.271 6.883,427.134 11.16,427.134 	"/>
</g>
</svg>
