<?xml version="1.0" encoding="utf-8"?>
<!-- Generator: Adobe Illustrator 16.0.0, SVG Export Plug-In . SVG Version: 6.00 Build 0)  -->
<!DOCTYPE svg PUBLIC "-//W3C//DTD SVG 1.1//EN" "http://www.w3.org/Graphics/SVG/1.1/DTD/svg11.dtd">
<svg version="1.1" xmlns="http://www.w3.org/2000/svg" xmlns:xlink="http://www.w3.org/1999/xlink" x="0px" y="0px" width="116px"
	 height="58px" viewBox="0 0 116 58" enable-background="new 0 0 116 58" xml:space="preserve">
<g id="Layer_1" display="none">
	<image display="inline" overflow="visible" width="125" height="58" xlink:href="spt_redes.png" >
	</image>
</g>
<g id="Layer_2" display="none">
	<rect display="inline" fill="#598DCA" width="58" height="58"/>
	<rect x="58" display="inline" fill="#3A589B" width="58" height="58"/>
</g>
<g id="Layer_3">
	<path fill="#FFFFFF" d="M44,19.876c-1.102,0.487-2.291,0.816-3.535,0.965c1.271-0.76,2.246-1.962,2.706-3.393
		c-1.188,0.703-2.505,1.212-3.909,1.488C38.141,17.744,36.542,17,34.771,17c-3.398,0-6.154,2.745-6.154,6.131
		c0,0.48,0.053,0.949,0.157,1.397c-5.114-0.256-9.648-2.697-12.685-6.405c-0.53,0.905-0.833,1.958-0.833,3.082
		c0,2.127,1.086,4.003,2.738,5.104c-1.01-0.033-1.959-0.309-2.788-0.768c0,0.026,0,0.052,0,0.078c0,2.969,2.122,5.449,4.936,6.01
		c-0.516,0.142-1.06,0.217-1.62,0.217c-0.397,0-0.783-0.039-1.159-0.111c0.781,2.436,3.056,4.209,5.748,4.258
		c-2.105,1.644-4.76,2.624-7.646,2.624c-0.495,0-0.986-0.029-1.467-0.085c2.726,1.739,5.96,2.753,9.435,2.753
		c11.319,0,17.513-9.343,17.513-17.443c0-0.265-0.005-0.53-0.02-0.792C42.131,22.184,43.175,21.104,44,19.876z"/>
	<path id="f" fill="#FFFFFF" d="M89.864,44V29.909H95.3l0.715-5.636h-6.15v-3.391c0-1.606,0.511-2.701,2.817-2.701l2.819-0.001
		v-4.961C94.99,13.151,93.302,13,91.273,13c-4.239,0-7.046,2.586-7.046,7.334v3.938H80v5.636h4.228V44H89.864z"/>
</g>
</svg>
