<?xml version="1.0" encoding="utf-8"?>
<!-- Generator: Adobe Illustrator 16.0.3, SVG Export Plug-In . SVG Version: 6.00 Build 0)  -->
<!DOCTYPE svg PUBLIC "-//W3C//DTD SVG 1.1//EN" "http://www.w3.org/Graphics/SVG/1.1/DTD/svg11.dtd">
<svg version="1.1" id="Layer_1" xmlns="http://www.w3.org/2000/svg" xmlns:xlink="http://www.w3.org/1999/xlink" x="0px" y="0px"
	 width="52px" height="613.188px" viewBox="0 0 52 613.188" enable-background="new 0 0 52 613.188" xml:space="preserve">
<g id="png" display="none">
</g>
<path fill="#FFFFFF" d="M18.354,467.777c-3.887,0-7.16,2.614-8.167,6.184l-2.212-0.004l3.718,5.151l4.415-5.143l-3.136-0.003
	c0.897-2.09,2.965-3.559,5.382-3.559c3.24,0,5.869,2.628,5.869,5.869c0,3.24-2.629,5.868-5.869,5.868
	c-1.412,0-2.708-0.5-3.721-1.331c0,0-1.258-0.749-1.977,0.157c-0.719,0.905,0.272,1.843,0.272,1.843
	c1.472,1.222,3.363,1.96,5.425,1.96c4.694,0,8.498-3.804,8.498-8.497C26.852,471.582,23.049,467.777,18.354,467.777z"/>
<path fill="#FFFFFF" d="M21.529,7.768c0.65,0.38,1.471,1,1.471,1.64c0,0.641-0.721,1.12-1.34,1.5c-2.68,1.561-8.42,5-8.58,5
	c-0.05,0-1.08,0.04-1.08-1.149V4.029c0-1.11,0.5-1.12,1.1-1.12C13.77,2.908,20.91,7.438,21.529,7.768z"/>
<path fill="#999999" d="M21.529,533.767c0.65,0.381,1.471,1,1.471,1.641s-0.721,1.119-1.34,1.5c-2.68,1.561-8.42,5-8.58,5
	c-0.05,0-1.08,0.039-1.08-1.149v-10.73c0-1.108,0.5-1.119,1.1-1.119C13.77,528.908,20.91,533.437,21.529,533.767z"/>
<path fill="#FFFFFF" d="M20.156,239.96c0.58,0.92,0.93,2.17,0.93,3.141c0,0.89-0.41,2.26-0.881,3.06
	c-0.238,0.351-0.408,0.5-0.648,0.5c-0.41,0-0.69-0.39-0.69-0.77c0-0.5,0.853-1.25,0.853-2.79c0-0.8-0.353-1.86-0.9-2.601
	c-0.08-0.12-0.062-0.3-0.062-0.359c0-0.351,0.279-0.74,0.688-0.74C19.717,239.4,19.855,239.46,20.156,239.96z M17.146,238.301v9.569
	c-0.061,0.42-0.44,0.57-0.631,0.57c-0.279,0-0.5-0.24-0.77-0.51c-1.04-0.91-3.07-2.78-3.15-2.78h-1.949
	c-0.131,0-0.49-0.33-0.49-0.53v-3.029c0.029-0.2,0.3-0.53,0.521-0.53h1.971c1.18-1.07,2.359-2.22,3.56-3.2
	c0.091-0.09,0.25-0.06,0.31-0.06C16.755,237.801,17.146,237.98,17.146,238.301z M22.516,237.801c0.82,1.13,1.26,2.399,1.48,3.619
	c0.109,0.5,0.16,1.181,0.16,1.681c0,1.16-0.16,2.17-0.631,3.38c-0.029,0.09-0.99,2.55-1.779,2.55c-0.41,0-0.689-0.39-0.689-0.74
	c0-0.47,0.389-0.739,0.66-1.25c0.66-1.149,0.959-2.31,1.068-3.46V242.6c-0.029-0.271-0.08-0.62-0.139-0.891
	c-0.08-0.409-0.131-0.735-0.271-1.115c-0.109-0.36-0.328-0.834-0.52-1.164c-0.219-0.41-0.49-0.83-0.82-1.24
	c-0.139-0.18-0.09-0.271-0.09-0.42c0-0.38,0.281-0.74,0.691-0.74C22.046,237.03,22.156,237.301,22.516,237.801z"/>
<path fill="#FFFFFF" d="M20.156,181.958c0.58,0.92,0.93,2.17,0.93,3.141c0,0.89-0.41,2.26-0.881,3.06
	c-0.238,0.351-0.408,0.5-0.648,0.5c-0.41,0-0.69-0.39-0.69-0.77c0-0.5,0.853-1.25,0.853-2.79c0-0.8-0.353-1.86-0.9-2.601
	c-0.08-0.12-0.062-0.3-0.062-0.359c0-0.351,0.279-0.74,0.688-0.74C19.717,181.398,19.855,181.458,20.156,181.958z M17.146,180.299
	v9.569c-0.061,0.42-0.44,0.57-0.631,0.57c-0.279,0-0.5-0.24-0.77-0.51c-1.04-0.91-3.07-2.78-3.15-2.78h-1.949
	c-0.131,0-0.49-0.33-0.49-0.53v-3.029c0.029-0.2,0.3-0.53,0.521-0.53h1.971c1.18-1.07,2.359-2.22,3.56-3.2
	c0.091-0.09,0.25-0.06,0.31-0.06C16.755,179.799,17.146,179.978,17.146,180.299z"/>
<path fill="#FFFFFF" d="M17.146,122.209v9.57c-0.061,0.42-0.44,0.57-0.631,0.57c-0.279,0-0.5-0.24-0.77-0.51
	c-1.04-0.91-3.07-2.78-3.15-2.78h-1.949c-0.131,0-0.49-0.33-0.49-0.53v-3.03c0.029-0.199,0.3-0.529,0.521-0.529h1.971
	c1.18-1.07,2.359-2.221,3.56-3.2c0.091-0.09,0.25-0.061,0.31-0.061C16.755,121.709,17.146,121.889,17.146,122.209z"/>
<path fill="#FFFFFF" d="M25.499,356.019c0-0.319,0.028-0.789-0.13-1.069c-0.16-0.28-0.439-0.22-0.592-0.25
	c-0.188,0-0.438-0.06-0.6-0.16c-0.75-0.34-1.039-1.029-1.039-1.59c0-0.351,0.069-0.78,0.35-1.07c0.16-0.21,0.381-0.369,0.381-0.56
	c0-0.311-1.229-1.66-1.641-1.66c-0.371,0-0.689,0.72-1.689,0.72c-0.91,0-1.721-0.72-1.79-2.029c0-0.41-0.88-0.351-1.28-0.351
	c-0.35,0-1.01-0.061-1.229,0.32c0,0.119-0.03,0.25-0.03,0.34c-0.12,1.13-0.91,1.66-1.72,1.66c-0.381,0-0.79-0.09-1.1-0.34
	c-0.351-0.25-0.351-0.352-0.601-0.352c-0.31,0-1.66,1.19-1.66,1.631c0,0.279,0.25,0.409,0.47,0.75
	c0.131,0.159,0.19,0.409,0.25,0.561v0.63c-0.029,0.37-0.619,1.159-1.1,1.311c-0.34,0.131-0.62,0.131-0.939,0.189
	c-0.15,0.03-0.281,0.351-0.311,0.44v1.719c0,0.5,0.779,0.341,1.13,0.5c0.851,0.351,1.19,1,1.19,1.66c0,0.09,0,0.189-0.03,0.28
	c-0.03,0.22-0.09,0.439-0.22,0.63c-0.16,0.25-0.471,0.471-0.471,0.75s1.19,1.66,1.631,1.66c0.379,0,0.66-0.721,1.689-0.721
	c0.63,0,1.16,0.25,1.6,1.12c0.16,0.289,0.101,0.66,0.16,0.91c0.061,0.379,0.91,0.35,1.29,0.35c0.341,0,1.059,0.062,1.219-0.319
	c0.09-0.221,0.062-0.5,0.09-0.689c0.07-0.461,0.57-1.03,1.07-1.221c0.19-0.09,0.57-0.09,0.631-0.09c0.971,0,1.25,0.689,1.689,0.689
	c0.279,0,1.66-1.22,1.66-1.63c0-0.439-0.721-0.59-0.721-1.66c0-0.721,0.351-1.438,1.32-1.721c0.221-0.06,0.5-0.029,0.721-0.09
	C25.561,357.14,25.499,356.33,25.499,356.019z M17.506,358.66c-1.48,0-2.67-1.22-2.67-2.66c0-1.479,1.189-2.659,2.67-2.659
	c1.439,0,2.66,1.181,2.66,2.659C20.166,357.44,18.945,358.66,17.506,358.66z"/>
<rect x="22.674" y="123.586" transform="matrix(-0.705 0.7092 -0.7092 -0.705 128.8717 200.2433)" fill="#FFFFFF" stroke="#FFFFFF" stroke-linecap="round" stroke-linejoin="round" stroke-miterlimit="10" width="0.235" height="6.673"/>
<rect x="22.674" y="123.577" transform="matrix(0.7071 0.7071 -0.7071 0.7071 96.4166 21.0564)" fill="#FFFFFF" stroke="#FFFFFF" stroke-linecap="round" stroke-linejoin="round" stroke-miterlimit="10" width="0.235" height="6.673"/>
<path fill="#FFFFFF" d="M19.35,304.361c0,1.489,1.271,2.689,2.83,2.689c1.562,0,2.82-1.2,2.82-2.689c0-1.48-1.26-2.69-2.82-2.69
	c-0.699,0-1.35,0.25-1.84,0.649l-4.779-2.619c0.06-0.211,0.09-0.43,0.09-0.649c0-0.23-0.041-0.46-0.09-0.671l4.759-2.619
	c0.49,0.409,1.15,0.659,1.859,0.659c1.561,0,2.819-1.199,2.819-2.681c0-1.489-1.261-2.688-2.819-2.688
	c-1.56,0-2.83,1.199-2.83,2.688c0,0.201,0.03,0.4,0.069,0.59l-4.81,2.642c-0.479-0.38-1.109-0.609-1.789-0.609
	c-1.561,0-2.82,1.209-2.82,2.689c0,1.479,1.26,2.688,2.82,2.688c0.689,0,1.33-0.239,1.82-0.629l4.79,2.64
	C19.381,303.941,19.35,304.15,19.35,304.361z"/>
<g>
	<polygon fill="#FFFFFF" points="14,413.5 11.4,410.65 9.02,413.029 9,407.5 14.529,407.519 12.15,409.9 15,412.5 	"/>
	<polygon fill="#FFFFFF" points="14,417.5 11.4,420.349 9.02,417.97 9,423.5 14.529,423.48 12.15,421.099 15,418.5 	"/>
	<polygon fill="#FFFFFF" points="20,413.5 22.6,410.65 24.98,413.029 25,407.5 19.471,407.519 21.85,409.9 19,412.5 	"/>
	<polygon fill="#FFFFFF" points="20,417.5 22.6,420.349 24.98,417.97 25,423.5 19.471,423.48 21.85,421.099 19,418.5 	"/>
</g>
<path fill="#FFFFFF" d="M12,77.355c-0.626,0-1.134-0.508-1.134-1.134V63.22c0-0.626,0.508-1.135,1.134-1.135h3.039
	c0.626,0,1.134,0.509,1.134,1.135v13.001c0,0.626-0.508,1.134-1.134,1.134H12z"/>
<path fill="#FFFFFF" d="M20.199,77.355c-0.627,0-1.135-0.508-1.135-1.134V63.22c0-0.626,0.508-1.135,1.135-1.135h3.039
	c0.625,0,1.134,0.509,1.134,1.135v13.001c0,0.626-0.509,1.134-1.134,1.134H20.199z"/>
<path fill="none" stroke="#FFFFFF" stroke-width="3" stroke-miterlimit="10" d="M25.502,562.875c11.322,0,20.5,9.178,20.5,20.5
	s-9.178,20.5-20.5,20.5c-11.322,0-20.5-9.178-20.5-20.5S14.18,562.875,25.502,562.875"/>
<polygon fill="#FFFFFF" points="21.336,573.574 34.669,583.484 21.336,593.396 "/>
</svg>
