<?xml version="1.0" encoding="UTF-8"?>
<svg width="12px" height="19px" viewBox="0 0 12 19" version="1.1" xmlns="http://www.w3.org/2000/svg" xmlns:xlink="http://www.w3.org/1999/xlink">
    <g id="Desktop-widget---640x360" stroke="none" stroke-width="1" fill="none" fill-rule="evenodd">
        <g id="005---Desktop" transform="translate(-368.000000, -266.000000)" fill="#FFFFFF">
            <g id="Group-4-Copy-2" transform="translate(357.000000, 258.000000)">
                <path d="M15.9772524,21.0454619 L18.299212,20.2890827 C17.9561953,20.0021802 17.7187221,19.5327035 17.7187221,19.1153908 C17.7187221,16.7680071 22.4417989,16.4550226 22.4417989,12.5948805 C22.4417989,10.2474968 20.4100843,8.5 17.0854604,8.5 C14.7107291,8.5 12.6790144,9.46503553 11.3333333,11.0821221 L13.1011889,13.0382752 C13.9983096,11.9428295 15.1592894,11.2125323 16.7688296,11.2125323 C18.4839133,11.2125323 19.2754905,12.0732397 19.2754905,13.0904393 C19.2754905,15.3074128 15.0273599,15.6464793 15.0273599,18.8284884 C15.0273599,19.6891957 15.3439908,20.4455749 15.9772524,21.0454619 Z M16.927145,26.4444444 C17.9298093,26.4444444 18.7741583,25.6098191 18.7741583,24.6187016 C18.7741583,23.627584 17.9298093,22.7929587 16.927145,22.7929587 C15.9244806,22.7929587 15.0801317,23.627584 15.0801317,24.6187016 C15.0801317,25.6098191 15.9244806,26.4444444 16.927145,26.4444444 Z" id="?"></path>
            </g>
        </g>
    </g>
</svg>