<?xml version="1.0" encoding="UTF-8" standalone="no"?>
<svg width="42px" height="10px" viewBox="0 0 42 10" version="1.1" xmlns="http://www.w3.org/2000/svg" xmlns:xlink="http://www.w3.org/1999/xlink">
    <!-- Generator: Sketch 41.2 (35397) - http://www.bohemiancoding.com/sketch -->
    <title>toggle</title>
    <desc>Created with Sketch.</desc>
    <defs></defs>
    <g id="External-players" stroke="none" stroke-width="1" fill="none" fill-rule="evenodd">
        <g id="DL0---Desktop-widget---catalog" transform="translate(-986.000000, -367.000000)" fill="#FFFFFF">
            <g id="Group-7" transform="translate(973.000000, 342.000000)">
                <g id="Group-12-Copy-2" transform="translate(23.000000, 15.000000)">
                    <path d="M-5.33333333,10 C-2.756,10 -0.666666667,12.0566875 -0.666666667,14.59375 C-0.666666667,17.1308125 -2.756,19.1875 -5.33333333,19.1875 C-7.91066667,19.1875 -10,17.1308125 -10,14.59375 C-10,12.0566875 -7.91066667,10 -5.33333333,10 Z M11,10 C13.5773333,10 15.6666667,12.0566875 15.6666667,14.59375 C15.6666667,17.1308125 13.5773333,19.1875 11,19.1875 C8.42266667,19.1875 6.33333333,17.1308125 6.33333333,14.59375 C6.33333333,12.0566875 8.42266667,10 11,10 Z M27.3333333,10 C29.9106667,10 32,12.0566875 32,14.59375 C32,17.1308125 29.9106667,19.1875 27.3333333,19.1875 C24.756,19.1875 22.6666667,17.1308125 22.6666667,14.59375 C22.6666667,12.0566875 24.756,10 27.3333333,10 Z" id="toggle"></path>
                </g>
            </g>
        </g>
    </g>
</svg>