<?xml version="1.0" encoding="utf-8"?>
<svg version="1.1" xmlns="http://www.w3.org/2000/svg" xmlns:xlink="http://www.w3.org/1999/xlink" x="0px" y="0px" width="75.574px" height="32px" viewBox="0 0 75.574 32" enable-background="new 0 0 75.574 32" xml:space="preserve">
	<g transform="translate(-1260.000000, -352.000000)">
		<g transform="translate(973.000000, 342.000000)">
			<g transform="translate(287.000000, 10.000000)">
				<path fill="#FFFFFF" d="M74.222,27.516l-9.636,0.151l7.871-6.866l0.119-0.102c1.545-1.289,2.52-3.252,2.52-5.453
					c0-2.242-1.031-4.254-2.63-5.544c-1.167-0.951-2.638-1.521-4.237-1.531H54.789h-1.683c-0.755,0-1.362,0.621-1.362,1.381v0.15
					v1.57v19.346c0,0.761,0.607,1.382,1.362,1.382h1.683c0.742,0,1.35-0.621,1.35-1.382V12.653h12.035
					c1.397,0,2.527,1.161,2.527,2.593c0,0.741-0.303,1.411-0.79,1.881L58.484,27.375c-0.58,0.469-0.957,1.211-0.957,2.033
					c0,1.43,1.14,2.591,2.547,2.591h14.148c0.745,0,1.352-0.62,1.352-1.382v-1.719C75.574,28.137,74.968,27.516,74.222,27.516"/>
				<path fill="#FFFFFF" d="M22.441,8.17H7.008C5.375,8.191,3.875,8.761,2.682,9.702C1.051,11.003,0,13.004,0,15.256
					c0,3.884,3.133,7.035,7.036,7.076h9.719c1.436,0,2.59,1.162,2.59,2.593s-1.154,2.591-2.59,2.591H1.379
					C0.62,27.516,0,28.135,0,28.898v1.72C0,31.379,0.619,32,1.379,32h15.432c3.885-0.031,7.018-3.195,7.018-7.076
					c0-3.893-3.133-7.045-7.037-7.074H7.064c-1.425-0.01-2.58-1.17-2.58-2.592c0-1.432,1.154-2.591,2.58-2.603h15.377
					c0.769,0,1.389-0.62,1.389-1.38V9.714V9.562C23.83,8.791,23.209,8.17,22.441,8.17"/>
				<path fill="#FFFFFF" d="M49.702,9.551c0-0.761-0.62-1.381-1.38-1.381H27.261c-0.713,0-1.303,0.67-1.378,1.531
					c0,0.06-0.01,20.578-0.01,20.578c0,0.951,0.619,1.721,1.388,1.721h21.062c0.76,0,1.38-0.62,1.38-1.382v-1.719
					c0-0.762-0.62-1.383-1.38-1.383H30.357v-5.194h15.526c0.76,0,1.381-0.622,1.381-1.382V19.22c0-0.762-0.619-1.381-1.381-1.381
					H30.357v-5.185h17.965c0.76,0,1.38-0.62,1.38-1.381V9.551L49.702,9.551z"/>
				<path fill="#FFFFFF" d="M60.271,1.139c-0.012-0.01,0.67,1.833,0.67,1.833H59.57L60.271,1.139L60.271,1.139z
					 M58.422,4.766c0.284,0,0.447-0.077,0.527-0.279l0.326-0.782h1.969l0.316,0.782c0.081,0.203,0.264,0.279,0.527,0.279
					c0.306,0,0.551-0.192,0.551-0.444c0-0.115-0.072-0.298-0.113-0.405l-1.463-3.542C60.93,0.048,60.697,0,60.422,0h-0.285
					c-0.292,0-0.477,0.077-0.578,0.308l-1.564,3.607c-0.041,0.107-0.121,0.29-0.121,0.405C57.874,4.594,58.098,4.766,58.422,4.766
					L58.422,4.766z"/>
				<path fill="#FFFFFF" d="M42.094,4.766h2.357c0.279,0,0.484-0.099,0.484-0.429s-0.205-0.419-0.484-0.419h-1.963
					V2.731h1.683c0.254,0,0.443-0.08,0.443-0.409c0-0.328-0.189-0.408-0.443-0.408h-1.683V0.847H44.4
					c0.288,0,0.486-0.089,0.486-0.418C44.887,0.09,44.688,0,44.4,0h-2.307c-0.348,0-0.562,0.15-0.562,0.628v3.509
					C41.532,4.616,41.746,4.766,42.094,4.766"/>
				<path fill="#FFFFFF" d="M32.885,0.877h0.722c0.634,0,0.921,0.568,0.921,1.505c0,0.739-0.228,1.506-0.921,1.506
					h-0.722V0.877L32.885,0.877z M32.501,4.766h1.062c1.164,0,1.842-0.877,1.842-2.384C35.404,0.518,34.527,0,33.577,0h-1.076
					C32.199,0,32,0.15,32,0.628v3.509C32,4.616,32.199,4.766,32.501,4.766L32.501,4.766z"/>
				<path fill="#FFFFFF" d="M17.552,4.766c0.851,0,1.512-0.649,1.512-1.297c0-0.248-0.206-0.391-0.411-0.391
					c-0.161,0-0.257,0.134-0.345,0.276l-0.095,0.162c-0.14,0.22-0.309,0.439-0.661,0.439c-0.763,0-1.042-0.734-1.042-1.573
					c0-0.991,0.455-1.562,1.012-1.562c0.404,0,0.573,0.21,0.698,0.419c0.124,0.2,0.212,0.4,0.462,0.4
					c0.257,0,0.381-0.172,0.381-0.458C19.064,0.753,18.522,0,17.523,0C16.29,0,15.66,1.105,15.66,2.382
					C15.66,3.955,16.364,4.766,17.552,4.766"/>
				<path fill="#FFFFFF" d="M52.65,4.766c0.324,0,0.456-0.231,0.456-0.636V0.5c0-0.337-0.138-0.5-0.37-0.5
					c-0.225,0-0.371,0.164-0.371,0.5v2.754L50.576,0.27c-0.086-0.183-0.225-0.269-0.391-0.269c-0.332,0-0.483,0.183-0.483,0.606
					v3.668c0,0.327,0.139,0.491,0.37,0.491c0.232,0,0.371-0.164,0.371-0.491V1.598l1.782,2.898
					C52.324,4.698,52.404,4.766,52.65,4.766"/>
				<path fill="#FFFFFF" d="M25.042,2.972l0.5-1.833c-0.007-0.01,0.479,1.833,0.479,1.833H25.042L25.042,2.972z
					 M26.842,4.766c0.218,0,0.392-0.192,0.392-0.444c0-0.115-0.051-0.298-0.079-0.405l-1.046-3.542C26.014,0.048,25.848,0,25.651,0
					h-0.204c-0.21,0-0.34,0.077-0.414,0.308l-1.118,3.607c-0.028,0.107-0.086,0.29-0.086,0.405c0,0.271,0.159,0.444,0.391,0.444
					c0.204,0,0.32-0.076,0.378-0.278l0.225-0.782h1.416l0.225,0.782C26.521,4.689,26.652,4.766,26.842,4.766L26.842,4.766z"/>
			</g>
		</g>
	</g>
</svg>
