<?xml version="1.0" encoding="utf-8"?>
<svg version="1.1" xmlns="http://www.w3.org/2000/svg" xmlns:xlink="http://www.w3.org/1999/xlink" x="0px" y="0px"
	 width="78.298px" height="18.984px" viewBox="0.26 0.006 78.298 18.984" enable-background="new 0.26 0.006 78.298 18.984"
	 xml:space="preserve">
<g id="External-players" opacity="0.8661">
	<g id="DL0---Desktop-widget---catalog" transform="translate(-1509.000000, -1116.000000)">
		<g id="Group-5" transform="translate(962.000000, 786.000000)">
			<g id="Group-3" transform="translate(546.000000, 325.000000)">
				<g id="Group" transform="translate(39.000000, 7.639344)">
					<path id="Shape" fill="#FFFFFF" d="M39.819,10.554l-5.257,0.082l4.294-3.746l0.065-0.055c0.843-0.703,1.375-1.774,1.375-2.975
						c0-1.223-0.562-2.321-1.436-3.025C38.225,0.317,37.423,0.006,36.55,0h-7.332h-0.917c-0.412,0-0.743,0.339-0.743,0.753v0.082
						v0.857v10.553c0,0.416,0.331,0.754,0.743,0.754h0.917c0.405,0,0.737-0.338,0.737-0.754v-9.8h6.564
						c0.763,0,1.379,0.633,1.379,1.415c0,0.404-0.165,0.77-0.431,1.026l-6.233,5.591c-0.316,0.256-0.521,0.661-0.521,1.108
						c0,0.781,0.621,1.414,1.389,1.414h7.719c0.406,0,0.737-0.338,0.737-0.754v-0.938C40.557,10.892,40.227,10.554,39.819,10.554"/>
					<path id="Shape_1_" fill="#FFFFFF" d="M12.242,0h-8.42C2.932,0.012,2.113,0.323,1.463,0.836C0.573,1.546,0,2.637,0,3.866
						c0,2.119,1.709,3.838,3.838,3.86h5.303c0.783,0,1.412,0.634,1.412,1.414s-0.629,1.414-1.412,1.414H0.752
						C0.338,10.554,0,10.892,0,11.308v0.938c0,0.415,0.337,0.753,0.752,0.753h8.419C11.291,12.984,13,11.257,13,9.14
						c0-2.124-1.709-3.843-3.839-3.86H3.854C3.076,5.276,2.446,4.642,2.446,3.867c0-0.781,0.63-1.414,1.407-1.42h8.389
						c0.42,0,0.758-0.338,0.758-0.753V0.842V0.76C13,0.339,12.662,0,12.242,0"/>
					<path id="Shape_2_" fill="#FFFFFF" d="M27.115,0.753C27.115,0.338,26.776,0,26.362,0h-11.49c-0.39,0-0.711,0.366-0.751,0.835
						c0,0.033-0.006,11.226-0.006,11.226c0,0.52,0.338,0.938,0.757,0.938h11.49c0.414,0,0.753-0.338,0.753-0.753v-0.938
						c0-0.415-0.339-0.754-0.753-0.754h-9.802V7.72h8.471c0.414,0,0.753-0.339,0.753-0.753V6.028c0-0.416-0.338-0.753-0.753-0.753
						h-8.471V2.446h9.802c0.414,0,0.753-0.338,0.753-0.753V0.753L27.115,0.753z"/>
				</g>
				<g enable-background="new    ">
					<path fill="#FFFFFF" d="M2.478,9.164v2.058H2.52c0.308-0.756,0.809-1.34,1.501-1.753s1.48-0.62,2.362-0.62
						c0.826,0,1.544,0.154,2.153,0.462c0.609,0.309,1.116,0.725,1.522,1.25c0.406,0.525,0.707,1.134,0.903,1.827
						c0.196,0.692,0.294,1.425,0.294,2.194c0,0.771-0.098,1.502-0.294,2.194c-0.196,0.693-0.497,1.302-0.903,1.827
						c-0.406,0.525-0.914,0.938-1.522,1.239s-1.327,0.451-2.153,0.451c-0.392,0-0.784-0.049-1.176-0.146
						c-0.392-0.099-0.756-0.245-1.092-0.441c-0.336-0.196-0.634-0.441-0.893-0.735c-0.259-0.294-0.459-0.637-0.599-1.028H2.583
						v6.048H1.26V9.164H2.478z M9.733,12.912c-0.133-0.553-0.343-1.046-0.63-1.48c-0.287-0.434-0.655-0.787-1.103-1.061
						c-0.448-0.272-0.987-0.409-1.617-0.409c-0.728,0-1.337,0.126-1.827,0.378c-0.49,0.252-0.882,0.588-1.176,1.008
						s-0.5,0.91-0.619,1.471c-0.119,0.56-0.179,1.147-0.179,1.764c0,0.561,0.066,1.116,0.2,1.67c0.133,0.553,0.35,1.046,0.651,1.48
						c0.301,0.434,0.693,0.787,1.176,1.061c0.483,0.272,1.074,0.409,1.774,0.409c0.63,0,1.169-0.137,1.617-0.409
						c0.448-0.273,0.815-0.627,1.103-1.061c0.287-0.435,0.497-0.928,0.63-1.48c0.133-0.554,0.2-1.109,0.2-1.67
						C9.933,14.022,9.866,13.466,9.733,12.912z"/>
					<path fill="#FFFFFF" d="M14.658,5.006V20h-1.323V5.006H14.658z"/>
					<path fill="#FFFFFF" d="M17.472,10.844c0.224-0.462,0.528-0.84,0.913-1.134c0.385-0.294,0.836-0.511,1.354-0.651
						c0.518-0.14,1.092-0.21,1.722-0.21c0.476,0,0.952,0.046,1.428,0.137c0.476,0.092,0.903,0.263,1.281,0.515
						s0.686,0.605,0.924,1.061c0.238,0.455,0.357,1.047,0.357,1.774v5.754c0,0.532,0.259,0.798,0.777,0.798
						c0.154,0,0.294-0.027,0.42-0.084v1.113c-0.154,0.028-0.291,0.049-0.41,0.062C26.12,19.993,25.97,20,25.788,20
						c-0.336,0-0.606-0.045-0.809-0.137c-0.203-0.091-0.361-0.221-0.473-0.389c-0.112-0.168-0.186-0.367-0.22-0.598
						c-0.035-0.231-0.053-0.486-0.053-0.767h-0.042c-0.238,0.35-0.479,0.661-0.725,0.935c-0.245,0.272-0.518,0.5-0.819,0.682
						c-0.301,0.183-0.644,0.322-1.029,0.421c-0.385,0.098-0.844,0.146-1.375,0.146c-0.504,0-0.977-0.06-1.417-0.179
						c-0.441-0.118-0.826-0.308-1.155-0.566s-0.588-0.588-0.777-0.987s-0.284-0.871-0.284-1.418c0-0.756,0.168-1.347,0.504-1.774
						c0.336-0.427,0.78-0.752,1.333-0.977c0.553-0.224,1.176-0.381,1.869-0.472s1.396-0.179,2.11-0.263
						c0.28-0.028,0.525-0.063,0.735-0.105s0.385-0.115,0.525-0.221c0.14-0.104,0.249-0.248,0.326-0.43
						c0.077-0.182,0.115-0.42,0.115-0.714c0-0.448-0.073-0.815-0.22-1.103c-0.147-0.287-0.35-0.515-0.609-0.683
						s-0.56-0.284-0.903-0.347c-0.343-0.063-0.711-0.095-1.103-0.095c-0.84,0-1.526,0.199-2.058,0.599s-0.812,1.039-0.84,1.922
						h-1.323C17.115,11.852,17.248,11.306,17.472,10.844z M24.087,14.078c-0.084,0.154-0.245,0.266-0.483,0.336
						c-0.238,0.07-0.448,0.119-0.63,0.146c-0.56,0.099-1.138,0.187-1.732,0.263c-0.595,0.077-1.138,0.192-1.628,0.347
						s-0.892,0.375-1.208,0.661c-0.315,0.287-0.472,0.697-0.472,1.229c0,0.337,0.066,0.634,0.199,0.893
						c0.133,0.26,0.312,0.483,0.536,0.672c0.224,0.189,0.483,0.333,0.777,0.431c0.294,0.099,0.595,0.147,0.903,0.147
						c0.504,0,0.987-0.077,1.449-0.231c0.462-0.153,0.864-0.378,1.208-0.672c0.343-0.294,0.616-0.65,0.819-1.071
						c0.203-0.42,0.304-0.896,0.304-1.428v-1.722H24.087z"/>
					<path fill="#FFFFFF" d="M28.287,9.164l3.57,9.24l3.339-9.24h1.323l-4.704,12.474c-0.196,0.462-0.378,0.844-0.546,1.145
						s-0.354,0.539-0.557,0.714c-0.203,0.176-0.441,0.302-0.714,0.378c-0.273,0.077-0.62,0.116-1.04,0.116
						c-0.266-0.015-0.473-0.024-0.62-0.031c-0.147-0.008-0.276-0.032-0.389-0.074v-1.112c0.154,0.027,0.305,0.052,0.452,0.073
						c0.147,0.021,0.297,0.031,0.452,0.031c0.294,0,0.535-0.042,0.725-0.126c0.189-0.084,0.353-0.199,0.493-0.347
						c0.14-0.146,0.259-0.325,0.357-0.535s0.203-0.441,0.315-0.693l0.462-1.218L26.88,9.164H28.287z"/>
				</g>
			</g>
		</g>
	</g>
</g>
</svg>
