<?xml version="1.0" encoding="utf-8"?>
<!-- Generator: Adobe Illustrator 16.0.0, SVG Export Plug-In . SVG Version: 6.00 Build 0)  -->
<!DOCTYPE svg PUBLIC "-//W3C//DTD SVG 1.1//EN" "http://www.w3.org/Graphics/SVG/1.1/DTD/svg11.dtd">
<svg version="1.1" id="Layer_1" xmlns="http://www.w3.org/2000/svg" xmlns:xlink="http://www.w3.org/1999/xlink" x="0px" y="0px"
	 width="180px" height="48px" viewBox="0 0 180 48" enable-background="new 0 0 180 48" xml:space="preserve">
<g>
	<g>
		<path fill="#FFFFFF" d="M178.325,31.611l-11.937,0.17l9.75-7.725l0.147-0.113c1.912-1.453,3.12-3.66,3.12-6.138
			c0-2.522-1.274-4.785-3.256-6.238c-1.446-1.07-3.27-1.712-5.252-1.724h-16.652h-2.082c-0.934,0-1.686,0.698-1.686,1.554v0.169
			v1.768v21.769c0,0.855,0.752,1.553,1.686,1.553h2.082c0.925,0,1.677-0.697,1.677-1.553V14.889h14.907
			c1.732,0,3.132,1.307,3.132,2.916c0,0.834-0.374,1.588-0.979,2.117l-14.158,11.531c-0.717,0.531-1.184,1.363-1.184,2.287
			c0,1.609,1.413,2.916,3.155,2.916h17.528c0.921,0,1.675-0.697,1.675-1.553v-1.938C180,32.311,179.246,31.611,178.325,31.611"/>
		<path fill="#FFFFFF" d="M115.731,9.833H96.998c-1.982,0.022-3.806,0.665-5.25,1.723c-1.984,1.464-3.258,3.716-3.258,6.25
			c0,4.369,3.802,7.917,8.542,7.962h11.801c1.742,0,3.142,1.307,3.142,2.916c0,1.611-1.399,2.916-3.142,2.916H90.163
			c-0.921,0-1.673,0.699-1.673,1.555v1.938c0,0.855,0.752,1.553,1.673,1.553h18.735c4.715-0.033,8.52-3.592,8.52-7.961
			c0-4.381-3.805-7.928-8.542-7.961H97.065c-1.732-0.012-3.132-1.318-3.132-2.917c0-1.61,1.399-2.916,3.132-2.927h18.666
			c0.935,0,1.687-0.698,1.687-1.554v-1.757v-0.169C117.418,10.531,116.666,9.833,115.731,9.833"/>
		<path fill="#FFFFFF" d="M148.324,11.398c0-0.856-0.754-1.554-1.675-1.554H121.08c-0.865,0-1.584,0.754-1.676,1.723
			c0,0.067-0.01,23.152-0.01,23.152c0,1.07,0.751,1.938,1.686,1.938h25.569c0.921,0,1.675-0.697,1.675-1.555v-1.936
			c0-0.855-0.754-1.555-1.675-1.555h-21.812v-5.844h18.85c0.923,0,1.675-0.699,1.675-1.555v-1.936c0-0.857-0.752-1.555-1.675-1.555
			h-18.85v-5.833h21.812c0.921,0,1.675-0.699,1.675-1.554V11.398z"/>
	</g>
	<g>
		<path fill="#009FE1" d="M0,10.296h3.051v5.097h0.105c1.525-3.641,5.312-5.876,9.677-5.876c8.257,0,12.202,6.604,12.202,14.196
			c0,7.592-3.945,14.195-12.202,14.195c-4.05,0-7.994-2.027-9.415-5.875H3.313v15.027H0V10.296z M12.833,12.272
			c-7.311,0-9.52,5.357-9.52,11.44c0,5.564,2.471,11.439,9.52,11.439c6.311,0,8.888-5.875,8.888-11.439
			C21.721,18.149,19.144,12.272,12.833,12.272z"/>
		<path fill="#009FE1" d="M29.713,0h3.313v37.129h-3.313V0z"/>
		<path fill="#009FE1" d="M38.55,18.512c0.315-6.292,4.786-8.996,10.992-8.996c4.785,0,9.992,1.456,9.992,8.632v14.248
			c0,1.248,0.631,1.977,1.946,1.977c0.368,0,0.789-0.104,1.053-0.209v2.758c-0.737,0.154-1.262,0.207-2.157,0.207
			c-3.366,0-3.891-1.871-3.891-4.68h-0.106c-2.314,3.484-4.681,5.459-9.888,5.459c-4.996,0-9.098-2.443-9.098-7.852
			c0-7.541,7.416-7.801,14.568-8.633c2.735-0.311,4.261-0.676,4.261-3.639c0-4.42-3.209-5.512-7.101-5.512
			c-4.103,0-7.153,1.872-7.258,6.24H38.55z M56.222,22.465h-0.106c-0.421,0.779-1.893,1.039-2.787,1.195
			c-5.628,0.988-12.623,0.936-12.623,6.189c0,3.275,2.945,5.303,6.047,5.303c5.049,0,9.521-3.172,9.468-8.424V22.465z"/>
		<path fill="#009FE1" d="M62.584,10.296h3.523l8.941,22.881l8.362-22.881h3.313l-11.781,30.94
			c-1.894,4.525-2.998,5.824-7.153,5.824c-1.314-0.051-1.998-0.051-2.524-0.26v-2.756c0.789,0.156,1.526,0.26,2.262,0.26
			c2.945,0,3.629-1.715,4.734-4.211l1.157-3.068L62.584,10.296z"/>
	</g>
</g>
</svg>
