<?xml version="1.0" encoding="utf-8"?>
<!-- Generator: Adobe Illustrator 16.0.0, SVG Export Plug-In . SVG Version: 6.00 Build 0)  -->
<!DOCTYPE svg PUBLIC "-//W3C//DTD SVG 1.1//EN" "http://www.w3.org/Graphics/SVG/1.1/DTD/svg11.dtd">
<svg version="1.1" id="Capa_1" xmlns="http://www.w3.org/2000/svg" xmlns:xlink="http://www.w3.org/1999/xlink" x="0px" y="0px"
	 width="19.115px" height="19.554px" viewBox="-0.398 -1.857 19.115 19.554" enable-background="new -0.398 -1.857 19.115 19.554"
	 xml:space="preserve">
<g id="Page-1">
	<g id="Group-6" transform="translate(-231.000000, -456.000000)">
		<g id="Group-4" transform="translate(232.000000, 456.000000)">
			<path id="Shape_1_" fill="#FFFFFF" d="M10.431,5.171v2.18c0.33,0.461,0.52,0.531,0.52,1.19c0,0.689-0.189,0.898-0.52,1.369V12.1
				c1.299-0.58,2.24-1.729,2.24-3.559C12.671,6.741,11.729,5.751,10.431,5.171L10.431,5.171z M12.44,0.871v2.07
				c1.619,1.32,2.689,3.02,2.689,5.409c0,2.381-1.07,3.932-2.689,5.25v2.07c2.619-1.5,4.41-3.91,4.41-7.32
				C16.851,4.931,15.06,2.371,12.44,0.871L12.44,0.871z M7.95,0.031L7.96,16.93H7.011l-3.5-4.969H-0.75c-0.29,0-0.3-0.25-0.3-0.541
				V5.44c0-0.31,0.01-0.54,0.3-0.54h4.06l3.701-4.87l0.939-0.03l-0.029,0.03H7.95L7.95,0.031z"/>
			<path id="Path-3" fill="none" stroke="#FFFFFF" stroke-width="2" d="M-0.73-0.16L15.95,17"/>
			<path id="Path-3_1_" fill="none" stroke="#1A546D" stroke-width="2" d="M0.27-1.16L16.95,16"/>
		</g>
	</g>
</g>
</svg>
