<?xml version="1.0" encoding="utf-8"?>
<!-- Generator: Adobe Illustrator 16.0.0, SVG Export Plug-In . SVG Version: 6.00 Build 0)  -->
<!DOCTYPE svg PUBLIC "-//W3C//DTD SVG 1.1//EN" "http://www.w3.org/Graphics/SVG/1.1/DTD/svg11.dtd">
<svg version="1.1" id="Capa_1" xmlns="http://www.w3.org/2000/svg" xmlns:xlink="http://www.w3.org/1999/xlink" x="0px" y="0px"
	 width="19.115px" height="19.554px" viewBox="-0.398 -1.857 19.115 19.554" enable-background="new -0.398 -1.857 19.115 19.554"
	 xml:space="preserve">
<g id="Symbols">
	<g id="PlayerYoutube" transform="translate(-54.000000, -15.000000)">
		<g id="Group-11">
			<path id="Shape" fill="#FFFFFF" d="M65.48,20.17v2.18c0.33,0.46,0.52,0.53,0.52,1.19c0,0.69-0.189,0.899-0.52,1.37V27.1
				c1.299-0.58,2.24-1.729,2.24-3.56C67.721,21.74,66.779,20.75,65.48,20.17L65.48,20.17z M67.49,15.87v2.07
				c1.619,1.32,2.689,3.02,2.689,5.41c0,2.38-1.07,3.93-2.689,5.25v2.07c2.619-1.5,4.41-3.91,4.41-7.32
				C71.9,19.93,70.109,17.37,67.49,15.87L67.49,15.87z M63,15.03l0.01,16.899h-0.95l-3.5-4.97H54.3c-0.29,0-0.3-0.25-0.3-0.54v-5.98
				c0-0.31,0.01-0.54,0.3-0.54h4.06l3.7-4.87L63,15l-0.03,0.03H63L63,15.03z"/>
		</g>
	</g>
</g>
</svg>
