<?xml version="1.0" encoding="UTF-8" standalone="no"?>
<svg viewBox="0 0 993 200" version="1.1" xmlns="http://www.w3.org/2000/svg" xmlns:xlink="http://www.w3.org/1999/xlink">
    <defs>
        <polygon id="path-1" points="340.327233 199.819429 0 199.819429 0 0.000145182749 340.327233 0.000145182749 340.327233 199.819429"></polygon>
        <polygon id="path-3" points="340.327233 199.819429 0 199.819429 0 0.000145182749 340.327233 0.000145182749 340.327233 199.819429"></polygon>
        <polygon id="path-5" points="340.327233 199.819429 0 199.819429 0 0.000145182749 340.327233 0.000145182749 340.327233 199.819429"></polygon>
    </defs>
    <g id="Page-1" stroke="none" stroke-width="1" fill="none" fill-rule="evenodd" opacity="0.889662591">
        <g id="Group-5">
            <g id="Page-1">
                <mask id="mask-2" fill="white">
                    <use xlink:href="#path-1"></use>
                </mask>
                <g id="Clip-2"></g>
                <path d="M305.762233,98.7496571 C301.718754,97.2925143 294.670298,94.6593714 288.893515,92.0216571 C280.260689,88.0788 274.508167,93.7736571 271.055037,93.7736571 C267.601233,93.7736571 271.630559,70.9925143 264.148776,63.5445143 C256.667667,56.0965143 261.847363,93.3348 253.216559,93.7736571 C244.583059,94.2125143 252.641037,59.1633714 244.583059,56.9725143 C236.52508,54.7816571 241.70545,88.9548 235.950233,88.9548 C230.196363,88.9548 238.826493,31.1222286 228.469124,23.2370857 C218.11108,15.3519429 226.167711,71.8685143 220.412493,71.8685143 C214.65795,71.8685143 225.593537,-1.2972 216.383841,0.0176571429 C207.176841,1.33194286 210.055798,86.3262286 203.724385,86.3262286 C197.39432,86.3262286 204.876776,39.0108 195.667754,37.6959429 C186.460754,36.3816571 192.790146,81.5073714 188.18732,80.1930857 C183.583146,78.8782286 190.487385,51.2782286 181.855907,50.8399429 C173.22308,50.4010857 180.704863,83.6970857 173.799276,83.2593714 C166.894363,82.8216571 169.77332,33.3136571 161.715341,27.6188 C153.657363,21.9239429 147.32932,59.1633714 131.790233,60.0393714 C131.790233,60.0393714 125.072667,60.8816571 125.072667,55.6713714 C125.072667,50.4616571 126.551233,31.4576571 123.593428,30.6125143 C120.635624,29.7673714 120.818928,79.8839429 115.641254,80.1662286 C110.464928,80.4485143 116.935167,49.0530857 110.278254,45.6748 C103.622689,42.2965143 110.64958,83.9662286 99.5536022,89.7388 C88.4576239,95.5119429 97.1477326,79.8862286 91.7854065,79.1810857 C86.4230804,78.4765143 90.122863,91.9913714 84.9451891,91.2879429 C79.7675152,90.5839429 89.0136022,68.9033714 81.986037,68.7628 C74.9584717,68.6222286 78.1022761,92.5559429 72.3699717,92.9776571 C66.6376674,93.3993714 69.96545,76.9268 62.19995,75.9422286 C54.4337761,74.9570857 62.3846022,93.6805143 51.47395,93.9622286 C40.5639717,94.2445143 46.11095,88.8942286 41.4892543,88.7536571 C36.8662109,88.6130857 37.7921674,96.0748 33.5384283,96.0748 C30.8346891,96.0748 27.7926457,97.6205143 25.9306239,98.7496571 L1.47903696,98.7496571 C0.662928261,98.7496571 -0.000202173913,99.2685143 -0.000202173913,99.9102286 C-0.000202173913,100.5508 0.662928261,101.0708 1.47903696,101.0708 L25.8962543,101.0708 C27.7596239,102.199371 30.8009935,103.745086 33.5040587,103.745086 C37.7571239,103.745086 36.8318413,111.2068 41.4548848,111.066229 C46.0779283,110.926229 40.53095,105.575943 51.4402543,105.857657 C62.3502326,106.139943 54.3994065,124.863371 62.1662543,123.878229 C69.9310804,122.893086 66.6046457,106.421086 72.3356022,106.8428 C78.0692543,107.263371 74.9241022,131.197657 81.9509935,131.057086 C88.9785587,130.917086 79.7324717,109.235943 84.9114935,108.532514 C90.0905152,107.828514 86.3907326,121.343943 91.7530587,120.639371 C97.1153848,119.9348 88.4239283,104.309086 99.5192326,110.081657 C110.614537,115.854229 103.587646,157.523371 110.245233,154.145086 C116.900798,150.767371 110.431233,119.371943 115.607559,119.654229 C120.785233,119.936514 120.601928,170.053657 123.559733,169.208514 C126.517537,168.363371 125.038972,149.358229 125.038972,144.149086 C125.038972,138.939371 131.757885,139.781086 131.757885,139.781086 C147.29495,140.657086 153.623667,177.896514 161.681646,172.201657 C169.739624,166.5068 166.860667,116.9988 173.766254,116.561086 C180.670493,116.123371 173.190733,149.419371 181.821537,148.980514 C190.455037,148.541657 183.54945,120.942229 188.153624,119.627943 C192.757798,118.312514 186.425711,163.439371 195.635407,162.124514 C204.842407,160.809086 197.359276,113.494229 203.690015,113.494229 C210.022102,113.494229 207.142472,198.487371 216.351493,199.802229 C225.559167,201.117086 214.624254,127.951371 220.378798,127.951371 C226.133341,127.951371 218.078059,184.467943 228.434754,176.582229 C238.79145,168.697086 230.162667,110.864514 235.917885,110.864514 C241.67108,110.864514 236.492059,145.037657 244.548689,142.8468 C252.606667,140.656514 244.548689,105.607371 253.181515,106.046229 C261.815015,106.485086 256.633972,143.723371 264.11508,136.2748 C271.596863,128.827371 267.566863,106.046229 271.020667,106.046229 C274.474472,106.046229 280.228341,111.740514 288.85982,107.798229 C294.635928,105.159943 301.684385,102.526229 305.727863,101.070229 L338.847993,101.070229 C339.666124,101.070229 340.327233,100.5508 340.327233,99.9096571 C340.325885,99.2685143 339.664776,98.7496571 338.846646,98.7496571 L305.762233,98.7496571 Z" id="Fill-1" fill="#004563" mask="url(#mask-2)"></path>
            </g>
            <g id="Page-1-Copy" transform="translate(324.000000, 0.000000)">
                <mask id="mask-4" fill="white">
                    <use xlink:href="#path-3"></use>
                </mask>
                <g id="Clip-2"></g>
                <path d="M305.762233,98.7496571 C301.718754,97.2925143 294.670298,94.6593714 288.893515,92.0216571 C280.260689,88.0788 274.508167,93.7736571 271.055037,93.7736571 C267.601233,93.7736571 271.630559,70.9925143 264.148776,63.5445143 C256.667667,56.0965143 261.847363,93.3348 253.216559,93.7736571 C244.583059,94.2125143 252.641037,59.1633714 244.583059,56.9725143 C236.52508,54.7816571 241.70545,88.9548 235.950233,88.9548 C230.196363,88.9548 238.826493,31.1222286 228.469124,23.2370857 C218.11108,15.3519429 226.167711,71.8685143 220.412493,71.8685143 C214.65795,71.8685143 225.593537,-1.2972 216.383841,0.0176571429 C207.176841,1.33194286 210.055798,86.3262286 203.724385,86.3262286 C197.39432,86.3262286 204.876776,39.0108 195.667754,37.6959429 C186.460754,36.3816571 192.790146,81.5073714 188.18732,80.1930857 C183.583146,78.8782286 190.487385,51.2782286 181.855907,50.8399429 C173.22308,50.4010857 180.704863,83.6970857 173.799276,83.2593714 C166.894363,82.8216571 169.77332,33.3136571 161.715341,27.6188 C153.657363,21.9239429 147.32932,59.1633714 131.790233,60.0393714 C131.790233,60.0393714 125.072667,60.8816571 125.072667,55.6713714 C125.072667,50.4616571 126.551233,31.4576571 123.593428,30.6125143 C120.635624,29.7673714 120.818928,79.8839429 115.641254,80.1662286 C110.464928,80.4485143 116.935167,49.0530857 110.278254,45.6748 C103.622689,42.2965143 110.64958,83.9662286 99.5536022,89.7388 C88.4576239,95.5119429 97.1477326,79.8862286 91.7854065,79.1810857 C86.4230804,78.4765143 90.122863,91.9913714 84.9451891,91.2879429 C79.7675152,90.5839429 89.0136022,68.9033714 81.986037,68.7628 C74.9584717,68.6222286 78.1022761,92.5559429 72.3699717,92.9776571 C66.6376674,93.3993714 69.96545,76.9268 62.19995,75.9422286 C54.4337761,74.9570857 62.3846022,93.6805143 51.47395,93.9622286 C40.5639717,94.2445143 46.11095,88.8942286 41.4892543,88.7536571 C36.8662109,88.6130857 37.7921674,96.0748 33.5384283,96.0748 C30.8346891,96.0748 27.7926457,97.6205143 25.9306239,98.7496571 L1.47903696,98.7496571 C0.662928261,98.7496571 -0.000202173913,99.2685143 -0.000202173913,99.9102286 C-0.000202173913,100.5508 0.662928261,101.0708 1.47903696,101.0708 L25.8962543,101.0708 C27.7596239,102.199371 30.8009935,103.745086 33.5040587,103.745086 C37.7571239,103.745086 36.8318413,111.2068 41.4548848,111.066229 C46.0779283,110.926229 40.53095,105.575943 51.4402543,105.857657 C62.3502326,106.139943 54.3994065,124.863371 62.1662543,123.878229 C69.9310804,122.893086 66.6046457,106.421086 72.3356022,106.8428 C78.0692543,107.263371 74.9241022,131.197657 81.9509935,131.057086 C88.9785587,130.917086 79.7324717,109.235943 84.9114935,108.532514 C90.0905152,107.828514 86.3907326,121.343943 91.7530587,120.639371 C97.1153848,119.9348 88.4239283,104.309086 99.5192326,110.081657 C110.614537,115.854229 103.587646,157.523371 110.245233,154.145086 C116.900798,150.767371 110.431233,119.371943 115.607559,119.654229 C120.785233,119.936514 120.601928,170.053657 123.559733,169.208514 C126.517537,168.363371 125.038972,149.358229 125.038972,144.149086 C125.038972,138.939371 131.757885,139.781086 131.757885,139.781086 C147.29495,140.657086 153.623667,177.896514 161.681646,172.201657 C169.739624,166.5068 166.860667,116.9988 173.766254,116.561086 C180.670493,116.123371 173.190733,149.419371 181.821537,148.980514 C190.455037,148.541657 183.54945,120.942229 188.153624,119.627943 C192.757798,118.312514 186.425711,163.439371 195.635407,162.124514 C204.842407,160.809086 197.359276,113.494229 203.690015,113.494229 C210.022102,113.494229 207.142472,198.487371 216.351493,199.802229 C225.559167,201.117086 214.624254,127.951371 220.378798,127.951371 C226.133341,127.951371 218.078059,184.467943 228.434754,176.582229 C238.79145,168.697086 230.162667,110.864514 235.917885,110.864514 C241.67108,110.864514 236.492059,145.037657 244.548689,142.8468 C252.606667,140.656514 244.548689,105.607371 253.181515,106.046229 C261.815015,106.485086 256.633972,143.723371 264.11508,136.2748 C271.596863,128.827371 267.566863,106.046229 271.020667,106.046229 C274.474472,106.046229 280.228341,111.740514 288.85982,107.798229 C294.635928,105.159943 301.684385,102.526229 305.727863,101.070229 L338.847993,101.070229 C339.666124,101.070229 340.327233,100.5508 340.327233,99.9096571 C340.325885,99.2685143 339.664776,98.7496571 338.846646,98.7496571 L305.762233,98.7496571 Z" id="Fill-1" fill="#004563" mask="url(#mask-4)"></path>
            </g>
            <g id="Page-1-Copy-2" transform="translate(652.000000, 0.000000)">
                <mask id="mask-6" fill="white">
                    <use xlink:href="#path-5"></use>
                </mask>
                <g id="Clip-2"></g>
                <path d="M305.762233,98.7496571 C301.718754,97.2925143 294.670298,94.6593714 288.893515,92.0216571 C280.260689,88.0788 274.508167,93.7736571 271.055037,93.7736571 C267.601233,93.7736571 271.630559,70.9925143 264.148776,63.5445143 C256.667667,56.0965143 261.847363,93.3348 253.216559,93.7736571 C244.583059,94.2125143 252.641037,59.1633714 244.583059,56.9725143 C236.52508,54.7816571 241.70545,88.9548 235.950233,88.9548 C230.196363,88.9548 238.826493,31.1222286 228.469124,23.2370857 C218.11108,15.3519429 226.167711,71.8685143 220.412493,71.8685143 C214.65795,71.8685143 225.593537,-1.2972 216.383841,0.0176571429 C207.176841,1.33194286 210.055798,86.3262286 203.724385,86.3262286 C197.39432,86.3262286 204.876776,39.0108 195.667754,37.6959429 C186.460754,36.3816571 192.790146,81.5073714 188.18732,80.1930857 C183.583146,78.8782286 190.487385,51.2782286 181.855907,50.8399429 C173.22308,50.4010857 180.704863,83.6970857 173.799276,83.2593714 C166.894363,82.8216571 169.77332,33.3136571 161.715341,27.6188 C153.657363,21.9239429 147.32932,59.1633714 131.790233,60.0393714 C131.790233,60.0393714 125.072667,60.8816571 125.072667,55.6713714 C125.072667,50.4616571 126.551233,31.4576571 123.593428,30.6125143 C120.635624,29.7673714 120.818928,79.8839429 115.641254,80.1662286 C110.464928,80.4485143 116.935167,49.0530857 110.278254,45.6748 C103.622689,42.2965143 110.64958,83.9662286 99.5536022,89.7388 C88.4576239,95.5119429 97.1477326,79.8862286 91.7854065,79.1810857 C86.4230804,78.4765143 90.122863,91.9913714 84.9451891,91.2879429 C79.7675152,90.5839429 89.0136022,68.9033714 81.986037,68.7628 C74.9584717,68.6222286 78.1022761,92.5559429 72.3699717,92.9776571 C66.6376674,93.3993714 69.96545,76.9268 62.19995,75.9422286 C54.4337761,74.9570857 62.3846022,93.6805143 51.47395,93.9622286 C40.5639717,94.2445143 46.11095,88.8942286 41.4892543,88.7536571 C36.8662109,88.6130857 37.7921674,96.0748 33.5384283,96.0748 C30.8346891,96.0748 27.7926457,97.6205143 25.9306239,98.7496571 L1.47903696,98.7496571 C0.662928261,98.7496571 -0.000202173913,99.2685143 -0.000202173913,99.9102286 C-0.000202173913,100.5508 0.662928261,101.0708 1.47903696,101.0708 L25.8962543,101.0708 C27.7596239,102.199371 30.8009935,103.745086 33.5040587,103.745086 C37.7571239,103.745086 36.8318413,111.2068 41.4548848,111.066229 C46.0779283,110.926229 40.53095,105.575943 51.4402543,105.857657 C62.3502326,106.139943 54.3994065,124.863371 62.1662543,123.878229 C69.9310804,122.893086 66.6046457,106.421086 72.3356022,106.8428 C78.0692543,107.263371 74.9241022,131.197657 81.9509935,131.057086 C88.9785587,130.917086 79.7324717,109.235943 84.9114935,108.532514 C90.0905152,107.828514 86.3907326,121.343943 91.7530587,120.639371 C97.1153848,119.9348 88.4239283,104.309086 99.5192326,110.081657 C110.614537,115.854229 103.587646,157.523371 110.245233,154.145086 C116.900798,150.767371 110.431233,119.371943 115.607559,119.654229 C120.785233,119.936514 120.601928,170.053657 123.559733,169.208514 C126.517537,168.363371 125.038972,149.358229 125.038972,144.149086 C125.038972,138.939371 131.757885,139.781086 131.757885,139.781086 C147.29495,140.657086 153.623667,177.896514 161.681646,172.201657 C169.739624,166.5068 166.860667,116.9988 173.766254,116.561086 C180.670493,116.123371 173.190733,149.419371 181.821537,148.980514 C190.455037,148.541657 183.54945,120.942229 188.153624,119.627943 C192.757798,118.312514 186.425711,163.439371 195.635407,162.124514 C204.842407,160.809086 197.359276,113.494229 203.690015,113.494229 C210.022102,113.494229 207.142472,198.487371 216.351493,199.802229 C225.559167,201.117086 214.624254,127.951371 220.378798,127.951371 C226.133341,127.951371 218.078059,184.467943 228.434754,176.582229 C238.79145,168.697086 230.162667,110.864514 235.917885,110.864514 C241.67108,110.864514 236.492059,145.037657 244.548689,142.8468 C252.606667,140.656514 244.548689,105.607371 253.181515,106.046229 C261.815015,106.485086 256.633972,143.723371 264.11508,136.2748 C271.596863,128.827371 267.566863,106.046229 271.020667,106.046229 C274.474472,106.046229 280.228341,111.740514 288.85982,107.798229 C294.635928,105.159943 301.684385,102.526229 305.727863,101.070229 L338.847993,101.070229 C339.666124,101.070229 340.327233,100.5508 340.327233,99.9096571 C340.325885,99.2685143 339.664776,98.7496571 338.846646,98.7496571 L305.762233,98.7496571 Z" id="Fill-1" fill="#004563" mask="url(#mask-6)"></path>
            </g>
        </g>
    </g>
</svg>