<?xml version="1.0" encoding="utf-8"?>
<!-- Generator: Adobe Illustrator 16.0.0, SVG Export Plug-In . SVG Version: 6.00 Build 0)  -->
<svg version="1.2" baseProfile="tiny" id="Capa_1" xmlns="http://www.w3.org/2000/svg" xmlns:xlink="http://www.w3.org/1999/xlink"
	 x="0px" y="0px" width="91.654px" height="1024px" viewBox="0 0 91.654 1024" xml:space="preserve">
<g>
	<g>
		<path fill="#666565" d="M52.374,268.275H39.28V242.19H0v-13.196h91.654v39.28H78.561v13.094H52.374V268.275z M78.561,267.751
			V242.19H52.374v25.561H78.561z"/>
		<path fill="#666565" d="M91.654,333.742v13.196H13.093v-13.196H0v-26.187h13.093V294.36h78.561v13.196H13.093v26.187H91.654z"/>
		<path fill="#666565" d="M78.561,399.209v13.094H52.374v-13.094H39.28v13.094H13.093v-13.094H0v-39.28h91.654v39.28H78.561z
			 M52.374,373.125v25.561h26.187v-25.561H52.374z M13.093,398.686H39.28v-25.561H13.093V398.686z"/>
		<path fill="#666565" d="M13.093,438.592v26.084H0v-39.28h91.654v13.196H13.093z"/>
		<path fill="#666565" d="M91.654,477.771v13.196H0v-13.196H91.654z"/>
		<path fill="#666565" d="M65.467,556.446V543.25h13.093v-26.199H13.093v26.199h13.094v13.196H13.093V543.25H0v-26.199h13.093
			v-13.196h65.467v13.196h13.094v26.199H78.561v13.196H65.467z"/>
		<path fill="#666565" d="M91.654,569.438v13.195H0v-13.195H91.654z"/>
		<path fill="#666565" d="M78.561,634.904v13.094H13.093v-13.094H0v-39.28h91.654v39.28H78.561z M78.561,634.367V608.82H13.093
			v25.547H78.561z"/>
		<path fill="#666565" d="M91.654,700.372H78.561v13.195H0v-13.195h39.28v-26.188H0v-13.195h78.561v13.195h13.094V700.372z
			 M78.037,674.185H52.374v26.188h25.663V674.185z"/>
		<path fill="#666565" d="M78.561,765.839v13.094H13.093v-13.094H0v-39.28h91.654v39.28H78.561z M78.561,765.302v-25.547H13.093
			v25.547H78.561z"/>
	</g>
	<polyline fill="#666565" points="89.519,81.323 48.857,40.661 89.519,0 	"/>
	<polyline fill="#666565" points="89.519,1024 48.857,983.339 89.519,942.678 	"/>
</g>
<g>
</g>
<g>
</g>
<g>
</g>
<g>
</g>
<g>
</g>
<g>
</g>
</svg>
