<?xml version="1.0" encoding="utf-8"?>
<!-- Generator: Adobe Illustrator 16.0.3, SVG Export Plug-In . SVG Version: 6.00 Build 0)  -->
<!DOCTYPE svg PUBLIC "-//W3C//DTD SVG 1.1//EN" "http://www.w3.org/Graphics/SVG/1.1/DTD/svg11.dtd">
<svg version="1.1" id="Layer_1" xmlns="http://www.w3.org/2000/svg" xmlns:xlink="http://www.w3.org/1999/xlink" x="0px" y="0px"
	 width="52px" height="613.188px" viewBox="0 0 52 613.188" enable-background="new 0 0 52 613.188" xml:space="preserve">
<g id="png" display="none">
</g>
<path fill="#E5E5E5" d="M18.354,467.777c-3.887,0-7.16,2.613-8.167,6.184l-2.212-0.004l3.718,5.151l4.415-5.144l-3.136-0.003
	c0.897-2.09,2.965-3.559,5.382-3.559c3.24,0,5.869,2.628,5.869,5.869c0,3.239-2.629,5.867-5.869,5.867
	c-1.412,0-2.708-0.5-3.721-1.331c0,0-1.258-0.749-1.977,0.157c-0.719,0.905,0.272,1.843,0.272,1.843
	c1.472,1.223,3.363,1.96,5.425,1.96c4.694,0,8.499-3.804,8.499-8.496C26.852,471.582,23.049,467.777,18.354,467.777z"/>
<path fill="#E5E5E5" d="M25.499,356.019c0-0.318,0.028-0.788-0.13-1.068c-0.16-0.28-0.439-0.22-0.592-0.25
	c-0.188,0-0.438-0.061-0.6-0.16c-0.75-0.34-1.039-1.029-1.039-1.59c0-0.352,0.069-0.78,0.35-1.07c0.16-0.21,0.381-0.369,0.381-0.56
	c0-0.312-1.229-1.66-1.641-1.66c-0.371,0-0.689,0.72-1.689,0.72c-0.91,0-1.721-0.72-1.79-2.029c0-0.409-0.88-0.351-1.28-0.351
	c-0.35,0-1.01-0.061-1.229,0.32c0,0.119-0.03,0.25-0.03,0.34c-0.12,1.13-0.91,1.66-1.72,1.66c-0.381,0-0.79-0.09-1.1-0.34
	c-0.351-0.25-0.351-0.353-0.601-0.353c-0.31,0-1.66,1.19-1.66,1.631c0,0.279,0.25,0.409,0.47,0.75
	c0.131,0.159,0.19,0.409,0.25,0.562v0.63c-0.029,0.37-0.619,1.159-1.1,1.311c-0.34,0.131-0.62,0.131-0.939,0.189
	c-0.15,0.03-0.281,0.351-0.311,0.439v1.72c0,0.5,0.779,0.341,1.13,0.5c0.851,0.351,1.19,1,1.19,1.66c0,0.09,0,0.188-0.03,0.279
	c-0.03,0.221-0.09,0.439-0.22,0.63c-0.16,0.25-0.471,0.472-0.471,0.75c0,0.279,1.19,1.66,1.631,1.66c0.379,0,0.66-0.721,1.689-0.721
	c0.63,0,1.16,0.25,1.6,1.12c0.16,0.289,0.101,0.66,0.16,0.91c0.061,0.379,0.91,0.35,1.29,0.35c0.341,0,1.059,0.063,1.219-0.319
	c0.09-0.221,0.062-0.5,0.09-0.688c0.07-0.461,0.57-1.03,1.07-1.221c0.19-0.091,0.57-0.091,0.631-0.091
	c0.971,0,1.25,0.689,1.689,0.689c0.279,0,1.66-1.22,1.66-1.63c0-0.439-0.721-0.59-0.721-1.66c0-0.721,0.351-1.438,1.32-1.721
	c0.221-0.061,0.5-0.029,0.721-0.091C25.561,357.14,25.499,356.33,25.499,356.019z M17.506,358.66c-1.48,0-2.67-1.22-2.67-2.66
	c0-1.479,1.189-2.659,2.67-2.659c1.439,0,2.66,1.182,2.66,2.659C20.166,357.44,18.945,358.66,17.506,358.66z"/>
<g>
	
		<rect x="22.673" y="123.238" transform="matrix(0.704 -0.7102 0.7102 0.704 -83.1491 53.6541)" fill="#E5E5E5" stroke="#E5E5E5" stroke-linecap="round" stroke-linejoin="round" stroke-miterlimit="10" width="0.235" height="6.673"/>
	
		<rect x="22.674" y="123.225" transform="matrix(-0.7081 -0.7061 0.7061 -0.7081 -50.4292 232.2775)" fill="#FFFFFF" stroke="#E5E5E5" stroke-linecap="round" stroke-linejoin="round" stroke-miterlimit="10" width="0.235" height="6.673"/>
</g>
<path fill="#E5E5E5" d="M19.35,304.361c0,1.488,1.271,2.688,2.83,2.688c1.562,0,2.82-1.2,2.82-2.688c0-1.48-1.26-2.69-2.82-2.69
	c-0.699,0-1.35,0.25-1.84,0.649l-4.779-2.619c0.06-0.211,0.09-0.43,0.09-0.649c0-0.229-0.041-0.46-0.09-0.671l4.759-2.619
	c0.49,0.409,1.15,0.659,1.859,0.659c1.561,0,2.819-1.199,2.819-2.681c0-1.489-1.261-2.688-2.819-2.688
	c-1.56,0-2.83,1.199-2.83,2.688c0,0.201,0.03,0.4,0.069,0.59l-4.81,2.642c-0.479-0.38-1.109-0.609-1.789-0.609
	c-1.561,0-2.82,1.209-2.82,2.689s1.26,2.688,2.82,2.688c0.689,0,1.33-0.239,1.82-0.629l4.79,2.64
	C19.381,303.941,19.35,304.15,19.35,304.361z"/>
<path fill="none" stroke="#FFFFFF" stroke-width="3" stroke-miterlimit="10" d="M25.502,562.875c11.322,0,20.5,9.178,20.5,20.5
	s-9.178,20.5-20.5,20.5c-11.322,0-20.5-9.178-20.5-20.5S14.18,562.875,25.502,562.875"/>
<polygon fill="#FFFFFF" points="21.336,573.574 34.669,583.484 21.336,593.396 "/>
<g>
	<path fill="#E5E5E5" d="M25,423.5v-1.066v-4.267h-1.067v4.267h-4.267v1.066h4.267H25z M25,407.5h-1.067h-4.267v1.066h4.267v4.267
		H25v-4.267V407.5z M9,423.5h1.066h4.267v-1.066h-4.267v-4.267H9v4.267V423.5z M9,407.5v1.066v4.267h1.066v-4.267h4.267V407.5
		h-4.267H9z"/>
</g>
<g>
	<path fill="#E5E5E5" d="M11.878,61.22h2.4c0.441,0,0.8,0.358,0.8,0.8v15.4c0,0.441-0.358,0.8-0.8,0.8h-2.4
		c-0.441,0-0.8-0.358-0.8-0.8v-15.4C11.078,61.578,11.437,61.22,11.878,61.22z"/>
	<path fill="#E5E5E5" d="M20.878,61.22h2.4c0.441,0,0.8,0.358,0.8,0.8v15.4c0,0.441-0.358,0.8-0.8,0.8h-2.4
		c-0.441,0-0.8-0.358-0.8-0.8v-15.4C20.078,61.578,20.437,61.22,20.878,61.22z"/>
</g>
<path fill="#E5E5E5" d="M8.741,240.877v4.63l2.861-0.002l4.667,4.354c0.722,0,0.251,0,1.045,0l-0.013-13c-0.635,0-0.462,0-1.032,0
	l-4.667,4.018H8.741z"/>
<path fill="#E5E5E5" d="M18.741,239.89v6.97c1.477-0.439,3-1.844,3-3.506c0-1.662-1.523-3.054-3-3.494l0,0"/>
<path fill="#FFFFFF" d="M18.741,249.41c2.69-0.588,4.573-3.02,4.623-5.969c0.05-2.948-1.749-5.451-4.417-6.145l0.324-1.437
	c3.304,0.859,5.531,3.958,5.469,7.609c-0.062,3.652-2.393,6.662-5.724,7.391L18.741,249.41z"/>
<path fill="#E5E5E5" d="M8.741,182.634v4.63l2.861-0.002l4.667,4.354c0.722,0,0.251,0,1.045,0l-0.013-13c-0.635,0-0.462,0-1.032,0
	l-4.667,4.018H8.741z"/>
<path fill="#E5E5E5" d="M18.741,181.646v6.97c1.477-0.439,3-1.844,3-3.506c0-1.662-1.523-3.054-3-3.494l0,0"/>
<path fill="#E5E5E5" d="M8.741,124.083v4.63l2.861-0.002l4.667,4.354c0.722,0,0.251,0,1.045,0l-0.013-13c-0.635,0-0.462,0-1.032,0
	l-4.667,4.018H8.741z"/>
<path fill="#999999" d="M11.863,542.961l13.275-7.539l-13.275-7.563V542.961z"/>
<path fill="#E5E5E5" d="M11.863,16.961l13.276-7.539L11.863,1.858V16.961z"/>
</svg>
