<?xml version="1.0" encoding="utf-8"?>
<!-- Generator: Adobe Illustrator 16.0.0, SVG Export Plug-In . SVG Version: 6.00 Build 0)  -->
<!DOCTYPE svg PUBLIC "-//W3C//DTD SVG 1.1//EN" "http://www.w3.org/Graphics/SVG/1.1/DTD/svg11.dtd">
<svg version="1.1" id="Layer_1" xmlns="http://www.w3.org/2000/svg" xmlns:xlink="http://www.w3.org/1999/xlink" x="0px" y="0px"
	 width="35px" height="1072.5px" viewBox="0 0 35 1072.5" enable-background="new 0 0 35 1072.5" xml:space="preserve">
<g id="png" display="none">
</g>
<g id="Group" transform="translate(-528.000000, -144.000000)">
	<path id="Shape" fill="#009CDE" d="M555.537,153.409L538,162.817V144L555.537,153.409L555.537,153.409z"/>
</g>
<g>
	<rect x="9" y="60" fill="#009CDE" width="6.039" height="19.025"/>
	<rect x="20.046" y="60" fill="#009CDE" width="6.038" height="19.025"/>
</g>
<g>
	<g id="Page-1_1_">
		<g id="Icons-AV_1_" transform="translate(-131.000000, -171.000000)">
			<g id="volume-mute_1_" transform="translate(131.500000, 171.000000)">
				<path id="Shape_2_" fill="#009CDE" d="M8.5,181.643v6.77h4.514l5.642,5.643V176l-5.642,5.643H8.5L8.5,181.643z"/>
			</g>
		</g>
	</g>
	<path fill="#009CDE" d="M23.273,179.713l-1.123,1.68c0.97,0.914,1.58,2.197,1.58,3.635c0,1.436-0.61,2.721-1.58,3.635l1.123,1.68
		c1.496-1.285,2.449-3.188,2.449-5.316C25.725,182.898,24.771,180.996,23.273,179.713z"/>
</g>
<g>
	<g id="Page-1_2_">
		<g id="Icons-AV_2_" transform="translate(-131.000000, -171.000000)">
			<g id="volume-mute_2_" transform="translate(131.500000, 171.000000)">
				<path id="Shape_3_" fill="#009CDE" d="M6.5,239.643v6.771h4.514l5.642,5.645V234l-5.642,5.643H6.5L6.5,239.643z"/>
			</g>
		</g>
	</g>
	<path fill="#009CDE" d="M24.242,234.375l-1.111,1.664c2.031,1.65,3.332,4.166,3.332,6.986c0,2.822-1.301,5.338-3.332,6.988
		l1.111,1.659c2.566-2.012,4.221-5.135,4.221-8.647C28.463,239.51,26.809,236.387,24.242,234.375z"/>
	<path fill="#009CDE" d="M21.273,237.713l-1.123,1.68c0.97,0.914,1.58,2.197,1.58,3.635s-0.61,2.724-1.58,3.638l1.123,1.68
		c1.496-1.282,2.449-3.188,2.449-5.313C23.725,240.898,22.771,238.996,21.273,237.713z"/>
</g>
<path fill="#009CDE" d="M25.197,354.107c-0.326-0.047-0.676-0.342-0.776-0.655l-0.485-1.185c-0.149-0.291-0.117-0.746,0.078-1.012
	l0.793-1.053c0.195-0.266,0.18-0.686-0.039-0.932l-0.865-0.865c-0.248-0.221-0.666-0.234-0.93-0.037l-1.054,0.79
	c-0.263,0.196-0.718,0.233-1.01,0.081l-1.183-0.487c-0.316-0.103-0.61-0.446-0.656-0.772l-0.188-1.306
	c-0.046-0.323-0.354-0.618-0.681-0.655c0,0-0.202-0.021-0.614-0.021c-0.41,0-0.615,0.021-0.615,0.021
	c-0.328,0.037-0.634,0.332-0.681,0.655l-0.187,1.306c-0.047,0.326-0.342,0.674-0.654,0.772l-1.184,0.487
	c-0.292,0.15-0.746,0.115-1.01-0.081l-1.055-0.791c-0.264-0.197-0.682-0.185-0.928,0.037l-0.867,0.864
	c-0.218,0.248-0.235,0.666-0.037,0.932l0.79,1.054c0.199,0.267,0.233,0.722,0.081,1.013l-0.488,1.185
	c-0.1,0.313-0.448,0.61-0.775,0.655l-1.303,0.186c-0.326,0.047-0.621,0.354-0.655,0.684c0,0-0.021,0.201-0.021,0.613
	c0,0.412,0.021,0.615,0.021,0.615c0.034,0.329,0.329,0.634,0.655,0.682l1.303,0.187c0.325,0.049,0.676,0.344,0.775,0.655
	l0.488,1.185c0.152,0.292,0.117,0.748-0.081,1.01l-0.79,1.056c-0.198,0.266-0.246,0.623-0.105,0.795
	c0.14,0.174,0.541,0.602,0.543,0.604c0,0.002,0.136,0.125,0.299,0.275c0.162,0.146,0.832,0.355,1.096,0.162l1.054-0.793
	c0.264-0.195,0.718-0.232,1.011-0.078l1.182,0.483c0.315,0.103,0.61,0.449,0.655,0.776l0.187,1.302
	c0.047,0.326,0.353,0.623,0.683,0.657c0,0,0.203,0.021,0.613,0.021c0.412,0,0.615-0.021,0.615-0.021
	c0.325-0.034,0.635-0.331,0.68-0.657l0.188-1.302c0.047-0.326,0.341-0.68,0.656-0.776l1.183-0.485
	c0.291-0.152,0.745-0.117,1.01,0.08l1.054,0.793c0.266,0.193,0.687,0.181,0.93-0.039l0.865-0.865
	c0.219-0.248,0.234-0.666,0.039-0.932l-0.791-1.056c-0.197-0.262-0.23-0.718-0.082-1.01l0.488-1.185
	c0.102-0.313,0.449-0.607,0.775-0.655l1.301-0.187c0.328-0.048,0.623-0.353,0.658-0.682c0,0,0.021-0.203,0.021-0.615
	c0-0.412-0.021-0.613-0.021-0.613c-0.035-0.328-0.33-0.637-0.658-0.684L25.197,354.107z M17.589,357.986
	c-1.323,0-2.398-1.072-2.398-2.396c0-1.324,1.075-2.396,2.398-2.396c1.324,0,2.397,1.072,2.397,2.396
	C19.986,356.914,18.913,357.986,17.589,357.986z"/>
<path fill="#009CDE" d="M26.805,298.251l-7.813,6.25v-3.112c-5.207-0.187-8.343,2.133-10.99,4.713c0-6.131,5.46-10.957,10.99-11.013
	V292L26.805,298.251z"/>
<path fill="#009CDE" d="M0,405v21h34v-21H0z M31,423H3v-15h28V423z"/>
<g>
	<g id="Page-1">
		<g id="Icons-AV" transform="translate(-131.000000, -171.000000)">
			<g id="volume-mute" transform="translate(131.500000, 171.000000)">
				<path id="Shape_1_" fill="#009CDE" d="M7.5,123.642v6.771h4.514l5.643,5.642V118l-5.643,5.642H7.5L7.5,123.642z"/>
			</g>
		</g>
	</g>
	<polygon fill="#009CDE" points="27.742,124.027 26.742,123.027 23.742,126.027 20.742,123.027 19.742,124.027 22.742,127.027 
		19.742,130.027 20.742,131.027 23.742,128.027 26.742,131.027 27.742,130.027 24.742,127.027 	"/>
</g>
<path fill="#009CDE" d="M18.217,466c-4.576,0-8.427,3.078-9.613,7.276L6,473.273l4.376,6.063l5.195-6.052l-3.69-0.004
	c1.056-2.46,3.489-4.188,6.335-4.188c3.813,0,6.906,3.093,6.906,6.907s-3.093,6.907-6.906,6.907c-1.662,0-3.187-0.588-4.379-1.567
	l-2.006,2.354c1.732,1.438,3.958,2.307,6.386,2.307c5.523,0,10-4.477,10-10C28.217,470.478,23.74,466,18.217,466z"/>
<g id="Group_1_" transform="translate(-528.000000, -144.000000)">
	<path id="Shape_7_" fill="#009CDE" d="M555.537,679.409L538,688.816V670L555.537,679.409L555.537,679.409z"/>
</g>
<g>
	<rect x="9" y="586" fill="#009CDE" width="6.039" height="19.025"/>
	<rect x="20.046" y="586" fill="#009CDE" width="6.038" height="19.025"/>
</g>
<g>
	<g id="Page-1_5_">
		<g id="Icons-AV_5_" transform="translate(-131.000000, -171.000000)">
			<g id="volume-mute_5_" transform="translate(131.500000, 171.000000)">
				<path id="Shape_6_" fill="#009CDE" d="M8.5,707.643v6.771h4.514l5.642,5.644V702l-5.642,5.643H8.5L8.5,707.643z"/>
			</g>
		</g>
	</g>
	<path fill="#009CDE" d="M23.273,705.713l-1.123,1.68c0.97,0.914,1.58,2.197,1.58,3.636c0,1.437-0.61,2.722-1.58,3.636l1.123,1.68
		c1.496-1.284,2.449-3.188,2.449-5.314C25.725,708.898,24.771,706.996,23.273,705.713z"/>
</g>
<g>
	<g id="Page-1_4_">
		<g id="Icons-AV_4_" transform="translate(-131.000000, -171.000000)">
			<g id="volume-mute_4_" transform="translate(131.500000, 171.000000)">
				<path id="Shape_5_" fill="#009CDE" d="M6.5,765.643v6.771h4.514l5.642,5.645V760l-5.642,5.643H6.5L6.5,765.643z"/>
			</g>
		</g>
	</g>
	<path fill="#009CDE" d="M24.242,760.375l-1.111,1.664c2.031,1.65,3.332,4.166,3.332,6.986c0,2.821-1.301,5.338-3.332,6.987
		l1.111,1.659c2.566-2.012,4.221-5.135,4.221-8.646C28.463,765.51,26.809,762.387,24.242,760.375z"/>
	<path fill="#009CDE" d="M21.273,763.713l-1.123,1.68c0.97,0.914,1.58,2.197,1.58,3.636c0,1.438-0.61,2.724-1.58,3.638l1.123,1.68
		c1.496-1.281,2.449-3.188,2.449-5.313C23.725,766.898,22.771,764.996,21.273,763.713z"/>
</g>
<path fill="#009CDE" d="M25.197,880.107c-0.326-0.048-0.676-0.343-0.776-0.655l-0.485-1.186c-0.149-0.291-0.117-0.746,0.078-1.012
	l0.793-1.053c0.195-0.267,0.18-0.687-0.039-0.933l-0.865-0.864c-0.248-0.222-0.666-0.234-0.93-0.037l-1.054,0.79
	c-0.263,0.195-0.718,0.232-1.01,0.081l-1.183-0.487c-0.316-0.103-0.61-0.446-0.656-0.772l-0.188-1.306
	c-0.046-0.323-0.354-0.618-0.681-0.655c0,0-0.202-0.021-0.614-0.021c-0.41,0-0.615,0.021-0.615,0.021
	c-0.328,0.037-0.634,0.332-0.681,0.655l-0.187,1.306c-0.047,0.326-0.342,0.675-0.654,0.772l-1.184,0.487
	c-0.292,0.149-0.746,0.114-1.01-0.081l-1.055-0.791c-0.264-0.197-0.682-0.186-0.928,0.037l-0.867,0.863
	c-0.218,0.248-0.235,0.666-0.037,0.933l0.79,1.054c0.199,0.267,0.233,0.722,0.081,1.013l-0.488,1.186
	c-0.1,0.313-0.448,0.609-0.775,0.655l-1.303,0.186c-0.326,0.047-0.621,0.354-0.655,0.684c0,0-0.021,0.201-0.021,0.613
	s0.021,0.615,0.021,0.615c0.034,0.329,0.329,0.634,0.655,0.682l1.303,0.188c0.325,0.049,0.676,0.344,0.775,0.655l0.488,1.185
	c0.152,0.292,0.117,0.748-0.081,1.01l-0.79,1.057c-0.198,0.266-0.246,0.622-0.105,0.795c0.14,0.174,0.541,0.602,0.543,0.604
	c0,0.002,0.136,0.125,0.299,0.275c0.162,0.146,0.832,0.354,1.096,0.162l1.054-0.793c0.264-0.195,0.718-0.232,1.011-0.078
	l1.182,0.482c0.315,0.104,0.61,0.449,0.655,0.776l0.187,1.302c0.047,0.326,0.353,0.623,0.683,0.657c0,0,0.203,0.021,0.613,0.021
	c0.412,0,0.615-0.021,0.615-0.021c0.325-0.034,0.635-0.331,0.68-0.657l0.188-1.302c0.047-0.326,0.341-0.68,0.656-0.776l1.183-0.484
	c0.291-0.152,0.745-0.117,1.01,0.08l1.054,0.793c0.266,0.192,0.687,0.181,0.93-0.039l0.865-0.865
	c0.219-0.248,0.234-0.666,0.039-0.932l-0.791-1.057c-0.197-0.262-0.23-0.718-0.082-1.01l0.488-1.185
	c0.102-0.313,0.449-0.607,0.775-0.655l1.301-0.188c0.328-0.048,0.623-0.353,0.658-0.682c0,0,0.021-0.203,0.021-0.615
	s-0.021-0.613-0.021-0.613c-0.035-0.327-0.33-0.637-0.658-0.684L25.197,880.107z M17.589,883.986c-1.323,0-2.398-1.072-2.398-2.396
	s1.075-2.396,2.398-2.396c1.324,0,2.397,1.071,2.397,2.396S18.913,883.986,17.589,883.986z"/>
<path fill="#009CDE" d="M26.805,824.251l-7.813,6.25v-3.112c-5.207-0.187-8.343,2.134-10.99,4.713c0-6.131,5.46-10.956,10.99-11.013
	V818L26.805,824.251z"/>
<path fill="#009CDE" d="M0,931v21h34v-21H0z M31,949H3v-15h28V949z"/>
<g>
	<g id="Page-1_3_">
		<g id="Icons-AV_3_" transform="translate(-131.000000, -171.000000)">
			<g id="volume-mute_3_" transform="translate(131.500000, 171.000000)">
				<path id="Shape_4_" fill="#009CDE" d="M7.5,649.643v6.771h4.514l5.643,5.642V644l-5.643,5.643H7.5L7.5,649.643z"/>
			</g>
		</g>
	</g>
	<polygon fill="#009CDE" points="27.742,650.027 26.742,649.027 23.742,652.027 20.742,649.027 19.742,650.027 22.742,653.027 
		19.742,656.027 20.742,657.027 23.742,654.027 26.742,657.027 27.742,656.027 24.742,653.027 	"/>
</g>
<path fill="#009CDE" d="M18.217,992c-4.576,0-8.427,3.078-9.613,7.276L6,999.273l4.376,6.063l5.195-6.052l-3.69-0.004
	c1.056-2.46,3.489-4.188,6.335-4.188c3.813,0,6.906,3.093,6.906,6.907c0,3.813-3.093,6.907-6.906,6.907
	c-1.662,0-3.187-0.588-4.379-1.567l-2.006,2.354c1.732,1.438,3.958,2.307,6.386,2.307c5.523,0,10-4.478,10-10
	C28.217,996.477,23.74,992,18.217,992z"/>
</svg>
