<?xml version="1.0" encoding="UTF-8" standalone="no"?>
<svg width="58px" height="19px" viewBox="0 0 58 19" version="1.1" xmlns="http://www.w3.org/2000/svg" xmlns:xlink="http://www.w3.org/1999/xlink">
    <!-- Generator: Sketch 41.2 (35397) - http://www.bohemiancoding.com/sketch -->
    <title>Group</title>
    <desc>Created with Sketch.</desc>
    <defs></defs>
    <g id="External-players" stroke="none" stroke-width="1" fill="none" fill-rule="evenodd">
        <g id="DL2---Desktop-widget---large---2---share-a-segment" transform="translate(-369.000000, -1143.000000)" fill="#FFFFFF">
            <g id="Group-6" transform="translate(340.000000, 1120.000000)">
                <g id="Group" transform="translate(29.000000, 23.500000)">
                    <path d="M56.9710734,14.898581 L49.6423925,15.015101 L55.6284443,9.72679526 L55.7198922,9.64962635 C56.8944466,8.65646002 57.6361151,7.14451168 57.6361151,5.44941496 C57.6361151,3.72256911 56.8520128,2.17325007 55.6357011,1.17944491 C54.7477899,0.447170795 53.6298138,0.00811295586 52.4123337,0 L42.1901003,0 L40.9106299,0 C40.3365441,0 39.875,0.478281106 39.875,1.06362768 L39.875,1.17944491 L39.875,2.38872251 L39.875,17.2880062 C39.875,17.8740555 40.3365441,18.3522727 40.9106299,18.3522727 L42.1901618,18.3522727 C42.7555764,18.3522727 43.2176125,17.8740555 43.2176125,17.2880062 L43.2176125,3.4522863 L52.3711914,3.4522863 C53.433819,3.4522863 54.2936256,4.34656401 54.2936256,5.44941496 C54.2936256,6.01987713 54.0630073,6.53603999 53.692542,6.89786504 L45.0011837,14.7901741 C44.559934,15.1518713 44.2735983,15.7230362 44.2735983,16.3559107 C44.2735983,17.4573562 45.1401082,18.35157 46.2106691,18.35157 L56.9718113,18.35157 C57.5385789,18.35157 58,17.8739916 58,17.2873674 L58,15.9634863 C57.9994465,15.3768621 57.5385789,14.898581 56.9710734,14.898581" id="Shape"></path>
                    <path d="M17.0684881,0 L5.33012927,0 C4.08835908,0.0161609613 2.94693712,0.455125888 2.04010034,1.18000569 C0.799522528,2.18185754 0,3.7229617 0,5.457167 C0,8.44866953 2.38319215,10.8751772 5.35152936,10.907052 L12.7439749,10.907052 C13.8361955,10.907052 14.7135993,11.8011428 14.7135993,12.9032182 C14.7135993,14.0047825 13.8361955,14.8990649 12.7439749,14.8990649 L1.04923212,14.8990649 C0.471366853,14.8990649 4.45914384e-16,15.375973 4.45914384e-16,15.9637721 L4.45914384e-16,17.2881405 C4.45914384e-16,17.8740871 0.470613771,18.3522727 1.04923212,18.3522727 L12.7870261,18.3522727 C15.7417451,18.3286381 18.125,15.8919101 18.125,12.9031543 C18.125,9.9050085 15.7417451,7.47715941 12.7729058,7.45422745 L5.37274119,7.45422745 C4.28880452,7.44739258 3.41071039,6.55323789 3.41071039,5.45838066 C3.41071039,4.35560265 4.28880452,3.46278939 5.37274119,3.45397432 L17.0684881,3.45397432 C17.6533194,3.45397432 18.125,2.97636361 18.125,2.39105575 L18.125,1.18882076 L18.125,1.07224465 C18.125,0.478185599 17.6533194,0 17.0684881,0" id="Shape"></path>
                    <path d="M38.0624372,1.0635638 C38.0624372,0.477578409 37.590821,0 37.0132715,0 L20.9933807,0 C20.4509122,0 20.0023904,0.516226742 19.9453446,1.17950879 C19.9453446,1.22556739 19.9375,17.026603 19.9375,17.026603 C19.9375,17.7595798 20.4084887,18.3522727 20.9933179,18.3522727 L37.0132715,18.3522727 C37.590821,18.3522727 38.0624372,17.8746943 38.0624372,17.2880701 L38.0624372,15.964189 C38.0624372,15.3775648 37.590821,14.8992837 37.0132715,14.8992837 L23.3483241,14.8992837 L23.3483241,10.8990216 L35.15762,10.8990216 C35.7358598,10.8990216 36.2074133,10.4200378 36.2074133,9.83469118 L36.2074133,8.50953247 C36.2074133,7.92290827 35.7364247,7.44609644 35.15762,7.44609644 L23.3483241,7.44609644 L23.3483241,3.45305288 L37.0133343,3.45305288 C37.5908838,3.45305288 38.0625,2.97541059 38.0625,2.38948909 L38.0625,1.0635638 L38.0624372,1.0635638 Z" id="Shape"></path>
                </g>
            </g>
        </g>
    </g>
</svg>