<?xml version="1.0" encoding="utf-8"?>
<!-- Generator: Adobe Illustrator 16.0.0, SVG Export Plug-In . SVG Version: 6.00 Build 0)  -->
<!DOCTYPE svg PUBLIC "-//W3C//DTD SVG 1.1//EN" "http://www.w3.org/Graphics/SVG/1.1/DTD/svg11.dtd">
<svg version="1.1" id="Layer_1" xmlns="http://www.w3.org/2000/svg" xmlns:xlink="http://www.w3.org/1999/xlink" x="0px" y="0px"
	 width="19.177px" height="19.18px" viewBox="0 0 19.177 19.18" enable-background="new 0 0 19.177 19.18" xml:space="preserve">
<path fill="#a8b700" d="M17.198,8.108c-0.327-0.048-0.676-0.343-0.777-0.656l-0.486-1.184c-0.152-0.291-0.117-0.746,0.079-1.01
	l0.792-1.053c0.196-0.264,0.181-0.684-0.038-0.929l-0.866-0.868c-0.247-0.218-0.665-0.234-0.93-0.037l-1.053,0.79
	c-0.263,0.198-0.718,0.235-1.01,0.081l-1.183-0.487c-0.316-0.101-0.61-0.448-0.656-0.775l-0.187-1.303
	c-0.046-0.326-0.353-0.62-0.681-0.657c0,0-0.202-0.021-0.614-0.021C9.178,0,8.974,0.021,8.974,0.021
	C8.646,0.058,8.34,0.352,8.293,0.678L8.107,1.98C8.061,2.308,7.766,2.655,7.452,2.756L6.269,3.243
	C5.977,3.396,5.522,3.36,5.259,3.162L4.204,2.371C3.94,2.174,3.522,2.189,3.276,2.408L2.409,3.275
	C2.191,3.522,2.174,3.941,2.372,4.204l0.79,1.054c0.199,0.265,0.233,0.719,0.081,1.01L2.755,7.452
	c-0.1,0.314-0.448,0.61-0.775,0.656L0.677,8.293C0.351,8.34,0.056,8.646,0.021,8.976C0.021,8.976,0,9.178,0,9.59
	s0.021,0.615,0.021,0.615c0.034,0.329,0.329,0.634,0.655,0.682l1.303,0.185c0.325,0.048,0.676,0.343,0.775,0.656l0.488,1.183
	c0.152,0.292,0.117,0.748-0.081,1.01l-0.79,1.054c-0.198,0.265-0.246,0.623-0.105,0.795c0.14,0.174,0.541,0.601,0.543,0.603
	c0,0.002,0.136,0.125,0.299,0.275c0.162,0.149,0.832,0.358,1.096,0.162l1.054-0.792c0.264-0.196,0.718-0.233,1.011-0.079
	l1.182,0.486c0.315,0.1,0.61,0.449,0.655,0.776l0.187,1.302c0.047,0.326,0.353,0.623,0.682,0.657c0,0,0.203,0.021,0.614,0.021
	c0.412,0,0.615-0.021,0.615-0.021c0.327-0.034,0.635-0.331,0.68-0.657L11.07,17.2c0.046-0.326,0.34-0.677,0.655-0.776l1.183-0.488
	c0.291-0.152,0.746-0.117,1.01,0.081l1.054,0.792c0.265,0.196,0.683,0.181,0.93-0.038l0.865-0.866
	c0.219-0.248,0.234-0.666,0.038-0.931l-0.791-1.054c-0.197-0.262-0.233-0.718-0.081-1.01l0.488-1.183
	c0.101-0.314,0.449-0.609,0.776-0.656l1.3-0.185c0.328-0.048,0.623-0.353,0.658-0.682c0,0,0.021-0.203,0.021-0.615
	s-0.021-0.614-0.021-0.614c-0.035-0.328-0.33-0.636-0.658-0.683L17.198,8.108z M9.589,11.987c-1.324,0-2.398-1.073-2.398-2.397
	s1.074-2.397,2.398-2.397s2.397,1.073,2.397,2.397S10.913,11.987,9.589,11.987z"/>
</svg>
